<?xml version="1.0" standalone="no"?>
<!DOCTYPE svg PUBLIC "-//W3C//DTD SVG 1.1//EN" "http://www.w3.org/Graphics/SVG/1.1/DTD/svg11.dtd">
<svg xmlns="http://www.w3.org/2000/svg">
<defs >
<font id="Amaranth" horiz-adv-x="430" ><font-face
    font-family="Amaranth"
    units-per-em="1000"
    panose-1="2 0 5 3 5 0 0 2 0 4"
    ascent="976"
    descent="-236"
    alphabetic="0" />
<glyph unicode=" " glyph-name="space" horiz-adv-x="255" />
<glyph unicode="!" glyph-name="exclam" horiz-adv-x="319" d="M211 140T230 119T249 65Q249 33 230 11T173 -11Q138 -11 120 11T101 63Q101 95 120 117T176 140Q211 140 230 119ZM127 677H254L225 220H127V677Z" />
<glyph unicode="&quot;" glyph-name="quotedbl" horiz-adv-x="366" d="M146 677L138 434H58L50 677H146ZM315 677L307 434H227L219 677H315Z" />
<glyph unicode="#" glyph-name="numbersign" horiz-adv-x="616" d="M485 593L467 456H566L556 378H457L437 221H543L533 143H427L409 0H330L348 143H224L206 0H127L145 143H40L50 221H155L175 378H63L73 456H185L203 593H282L264 456H388L406 593H485ZM234 221H358L378
378H254L234 221Z" />
<glyph unicode="$" glyph-name="dollar" horiz-adv-x="519" d="M223 11Q191 14 164 21T114 38T75 55T50 69L93 157Q100 152 117 143T155 125T200 108T243 101Q343 101 343 184Q343 204 337 217T318 239T288 256T248 272Q206 288 174 305T118 345T83 395T71 459Q71
487 82 513T113 559T161 594T223 615V694H305V617Q331 614 355 608T398 595T430 582T450 572L410 490Q402 494 388 500T355 514T316 526T274 531Q240 531 214 518T187 472Q187 452 194 437T216 409T252 387T302 366Q339 351 368 335T417 299T447 253T458 192Q458
162 449 134T420 82T372 41T305 15V-83H223V11Z" />
<glyph unicode="%" glyph-name="percent" horiz-adv-x="840" d="M271 591T306 545T341 417Q341 379 332 346T303 289T255 251T187 237Q110 237 75 283T40 410Q40 449 49 482T78 539T125 577T193 591Q271 591 306 545ZM157 520T148 491T138 416Q138 393 140 374T148
340T165 317T193 308Q224 308 233 337T243 412Q243 434 241 454T233 488T216 511T187 520Q157 520 148 491ZM511 587H605L331 0H237L511 587ZM730 351T764 305T799 177Q799 139 790 106T762 49T714 11T646 -3Q569 -3 534 43T499 170Q499 209 508 242T536 299T584
337T652 351Q730 351 764 305ZM616 280T607 251T597 176Q597 153 599 134T607 100T624 77T652 68Q683 68 692 97T702 172Q702 194 700 214T692 248T675 271T646 280Q616 280 607 251Z" />
<glyph unicode="&amp;" glyph-name="ampersand" horiz-adv-x="574" d="M384 460Q380 463 373 469T356 483T331 495T300 501Q269 501 254 487T238 448Q238 424 251 398T287 342T342 282T413 216Q425 236 435 255T453 295L537 261Q526 236 513 209T482 155L579 71L522
-5L420 78Q382 41 332 18T216 -6Q182 -6 150 5T92 39T51 94T35 169Q35 206 45 236T72 291T107 333T144 363Q121 409 121 453Q121 480 130 505T160 551T213 583T292 595Q343 595 379 576T442 523L384 460ZM304 176T264 214T193 290Q179 275 166 249T153 184Q153
141 178 117T249 92Q276 92 301 104T349 138Q304 176 264 214Z" />
<glyph unicode="&apos;" glyph-name="quotesingle" horiz-adv-x="196" d="M146 677L138 434H58L50 677H146Z" />
<glyph unicode="(" glyph-name="parenleft" horiz-adv-x="383" d="M70 366T92 442T148 575T217 669T281 726L343 658Q321 640 294 607T242 526T200 413T183 268Q183 186 199 122T240 9T293 -72T343 -123L281 -191Q254 -172 218 -135T148 -40T93 94T70 269Q70 366 92 442Z" />
<glyph unicode=")" glyph-name="parenright" horiz-adv-x="383" d="M343 171T321 94T265 -40T196 -134T132 -191L71 -123Q93 -105 121 -72T173 9T214 121T231 268Q231 349 214 413T173 525T121 607T71 658L132 726Q159 707 195 670T265 575T320 442T343 269Q343
171 321 94Z" />
<glyph unicode="*" glyph-name="asterisk" horiz-adv-x="450" d="M270 677L260 563L370 609L400 518L287 491L363 404L285 347L224 446L162 346L84 403L161 492L50 518L80 609L183 566L174 677H270Z" />
<glyph unicode="+" glyph-name="plus" horiz-adv-x="512" d="M60 346H209V498H303V346H452V257H303V99H209V257H60V346Z" />
<glyph unicode="," glyph-name="comma" horiz-adv-x="280" d="M88 124T103 132T153 141Q188 141 204 120T220 67Q220 26 209 -7T178 -67T135 -114T83 -147L40 -89Q79 -60 92 -31T106 25Q106 54 97 79T87 123Q88 124 103 132Z" />
<glyph unicode="-" glyph-name="hyphen" horiz-adv-x="383" d="M50 361H333V278H50V361Z" />
<glyph unicode="." glyph-name="period" horiz-adv-x="269" d="M171 140T189 119T208 65Q208 33 189 11T133 -11Q98 -11 79 11T60 63Q60 95 79 117T136 140Q171 140 189 119Z" />
<glyph unicode="/" glyph-name="slash" horiz-adv-x="417" d="M308 729H427L109 -126H-10L308 729Z" />
<glyph unicode="0" glyph-name="zero" horiz-adv-x="563" d="M350 642T393 621T465 560T505 461T518 327Q518 252 505 191T462 86T386 18T275 -6Q213 -6 170 15T98 76T58 176T45 311Q45 386 58 447T101 551T177 618T288 642Q350 642 393 621ZM244 555T224 539T191
492T174 418T169 322Q169 272 173 228T190 152T226 100T287 81Q318 81 338 98T371 145T388 219T393 315Q393 365 389 408T372 484T336 536T275 555Q244 555 224 539Z" />
<glyph unicode="1" glyph-name="one" horiz-adv-x="385" d="M285 637V0H171V504Q140 475 107 453T45 422L0 504Q24 514 48 524T96 550T145 585T200 637H285Z" />
<glyph unicode="2" glyph-name="two" horiz-adv-x="492" d="M39 586Q59 595 84 605T138 623T197 636T257 642Q292 642 324 634T380 605T419 552T434 469Q434 404 391 340T272 192L180 91H451V0H35L36 94Q44 103 63 123T104 166T145 209T173 238Q212 283 238 315T281
374T303 422T310 471Q310 509 289 532T233 555Q194 555 160 541T78 507L39 586Z" />
<glyph unicode="3" glyph-name="three" horiz-adv-x="500" d="M335 642T380 604T425 503Q425 474 415 452T390 413T356 385T323 367Q386 348 420 301T454 198Q454 160 443 124T404 58T333 12T222 -6Q177 -6 129 9T35 46L69 129Q114 109 149 95T219 81Q242 81 263
88T301 109T328 145T338 196Q338 242 311 270T248 299Q231 299 215 298T185 294T162 289T151 287L120 365Q156 377 189 388T249 413T290 446T306 492Q306 523 286 539T231 555Q212 555 196 553T164 545T129 532T87 516L48 593Q73 604 95 613T141 628T190 638T247
642Q335 642 380 604Z" />
<glyph unicode="4" glyph-name="four" horiz-adv-x="525" d="M300 176H20V240L202 637H319L144 262H300V466L413 486V262H510L494 176H413V0H300V176Z" />
<glyph unicode="5" glyph-name="five" horiz-adv-x="509" d="M65 322L99 637H427L411 546H199L178 385Q186 390 209 397T279 404Q321 404 354 389T411 346T447 283T460 206Q460 167 449 129T413 60T349 12T252 -7Q199 -7 148 8T45 46L79 129Q125 109 159 95T230
81Q288 81 312 112T337 207Q337 260 310 287T237 315Q207 315 185 311T148 302T124 293T112 287L65 322Z" />
<glyph unicode="6" glyph-name="six" horiz-adv-x="524" d="M412 534Q390 542 364 547T312 552Q268 552 241 536T197 492T175 428T167 349Q175 359 187 370T216 390T254 406T301 413Q389 413 439 359T489 205Q489 160 475 122T432 55T363 10T268 -6Q205 -6 163
18T94 85T57 187T45 318Q45 382 60 440T107 543T191 613T316 640Q353 640 385 632T443 613L412 534ZM259 327T240 321T206 307T181 291T167 280Q171 177 195 128T277 79Q328 79 350 113T373 204Q373 256 353 291T279 327Q259 327 240 321Z" />
<glyph unicode="7" glyph-name="seven" horiz-adv-x="458" d="M422 565L221 0H98L292 546H21L5 637H422V565Z" />
<glyph unicode="8" glyph-name="eight" horiz-adv-x="524" d="M261 -6Q218 -6 180 4T113 34T67 86T50 159Q50 189 60 214T88 259T128 297T173 328Q128 354 98 394T67 488Q67 519 82 547T124 596T187 629T266 642Q305 642 339 631T399 599T438 552T453 492Q453
466 445 444T422 402T389 366T350 335Q374 322 396 304T435 264T463 217T474 165Q474 126 458 95T413 41T345 6T261 -6ZM169 163Q169 126 195 100T269 73Q306 73 329 99T352 161Q352 180 344 198T323 232T295 262T264 287Q245 276 228 264T197 236T177 203T169
163ZM334 491Q334 522 315 542T262 563Q227 563 206 545T185 493Q185 472 192 455T210 423T234 398T262 379Q291 395 312 420T334 491Z" />
<glyph unicode="9" glyph-name="nine" horiz-adv-x="523" d="M112 100Q135 92 161 87T213 82Q256 82 283 98T327 141T349 205T357 283Q349 273 337 262T308 242T270 227T223 221Q135 221 85 275T35 429Q35 474 49 512T92 579T161 624T257 640Q320 640 362 616T431
549T468 447T479 316Q479 252 464 194T417 91T333 21T209 -6Q172 -6 140 2T81 21L112 100ZM265 307T284 313T318 327T343 342T357 352Q354 456 329 505T248 555Q197 555 174 520T151 430Q151 404 156 382T172 343T201 317T245 307Q265 307 284 313Z" />
<glyph unicode=":" glyph-name="colon" horiz-adv-x="289" d="M201 140T220 119T239 65Q239 33 220 11T163 -11Q128 -11 110 11T91 63Q91 95 110 117T166 140Q201 140 220 119ZM201 510T220 489T239 435Q239 403 220 381T163 359Q128 359 110 381T91 432Q91 465
110 487T166 510Q201 510 220 489Z" />
<glyph unicode=";" glyph-name="semicolon" horiz-adv-x="289" d="M201 510T219 489T238 435Q238 403 219 381T163 359Q128 359 109 381T90 432Q90 465 109 487T166 510Q201 510 219 489ZM108 124T122 132T172 141Q207 141 223 120T240 67Q240 26 229 -7T198 -67T154
-114T102 -147L60 -89Q99 -60 112 -31T126 25Q126 54 117 79T107 123Q108 124 122 132Z" />
<glyph unicode="&lt;" glyph-name="less" horiz-adv-x="455" d="M375 90L30 259V341L369 506L409 413L215 326Q200 318 184 312T154 300Q167 295 183 289T216 274L415 183L375 90Z" />
<glyph unicode="=" glyph-name="equal" horiz-adv-x="503" d="M70 436H433V348H70V436ZM70 261H433V173H70V261Z" />
<glyph unicode="&gt;" glyph-name="greater" horiz-adv-x="455" d="M40 183L239 274Q254 281 270 288T301 300Q287 305 271 311T240 326L46 413L86 506L425 341V259L80 90L40 183Z" />
<glyph unicode="?" glyph-name="question" horiz-adv-x="433" d="M307 687T358 652T409 537Q409 508 400 482T377 431T344 383T307 337Q279 302 257 268T223 197L139 220Q139 272 161 315T210 394T259 461T281 523Q281 560 260 580T204 600Q188 600 175 597T147
589T117 576T79 558L40 637Q81 656 124 671T219 687Q307 687 358 652ZM222 140T241 119T260 65Q260 33 241 11T184 -11Q149 -11 131 11T112 63Q112 95 131 117T187 140Q222 140 241 119Z" />
<glyph unicode="@" glyph-name="at" horiz-adv-x="894" d="M626 217Q626 188 627 162T634 117T649 85T677 73Q701 73 717 97T742 153T756 219T760 269Q760 338 737 388T676 472T587 522T480 538Q417 538 356 517T247 453T170 348T140 203Q140 149 152 98T194 6T276
-59T410 -84Q440 -84 470 -79T524 -66T564 -53T582 -46L609 -115Q608 -116 591 -123T547 -139T484 -155T411 -162Q344 -162 280 -145T166 -87T86 24T55 199Q55 301 93 378T192 508T332 588T491 615Q560 615 624 595T736 532T814 427T844 277Q844 243 835 195T804
102T750 26T669 -6Q613 -6 584 26T541 109Q527 52 493 23T399 -6Q314 -6 274 55T234 218Q234 269 249 312T293 387T361 437T449 455Q476 455 507 451T564 442Q595 436 626 429V217ZM437 69T456 83T489 120T512 174T520 237V371Q512 373 493 377T460 381Q430 381
409 370T373 338T353 289T346 227Q346 195 348 167T358 117T380 82T416 69Q437 69 456 83Z" />
<glyph unicode="A" glyph-name="A" horiz-adv-x="605" d="M255 677H349L610 0H483L421 177H177L113 0H-5L255 677ZM390 265Q358 355 335 428T300 544Q286 499 263 426T209 265H390Z" />
<glyph unicode="B" glyph-name="B" horiz-adv-x="565" d="M70 677Q77 677 102 677T158 678T220 678T271 679Q387 679 447 633T508 503Q508 454 481 415T406 352Q466 329 497 287T529 190Q529 104 464 52T267 -1Q240 -1 209 -1T150 -1T101 0T70 0V677ZM189 85H275Q343
85 372 115T402 192Q402 213 396 233T373 269T331 294T264 304Q240 304 222 304T189 303V85ZM189 389H266Q329 389 356 418T383 489Q383 508 377 527T357 561T318 585T256 594Q234 594 218 594T189 593V389Z" />
<glyph unicode="C" glyph-name="C" horiz-adv-x="523" d="M442 541Q418 567 392 580T330 594Q287 594 258 575T210 521T184 440T176 341Q176 288 183 242T209 161T259 106T339 86Q362 86 383 90T421 98T450 107T465 112L493 28L480 23Q467 18 444 12T388 0T316
-6Q182 -6 115 79T47 330Q47 409 65 474T119 587T211 660T342 686Q402 686 440 664T503 614L442 541Z" />
<glyph unicode="D" glyph-name="D" horiz-adv-x="643" d="M70 677Q77 677 100 677T152 678T212 678T266 679Q436 679 518 595T600 343Q600 176 516 87T253 -2Q222 -2 193 -2T139 -1T96 -1T70 0V677ZM229 590T214 590T189 589V88Q200 87 217 87T268 87Q373 87 422
148T471 332Q471 390 460 437T422 519T354 571T252 590Q229 590 214 590Z" />
<glyph unicode="E" glyph-name="E" horiz-adv-x="513" d="M70 677H472V587H189V398H422L407 307H189V90H487V0H70V677Z" />
<glyph unicode="F" glyph-name="F" horiz-adv-x="488" d="M70 677H472V587H189V392H422L407 302H189V0H70V677Z" />
<glyph unicode="G" glyph-name="G" horiz-adv-x="605" d="M331 -144Q376 -122 400 -96T435 -42T448 13T450 65V79Q427 37 383 15T281 -8Q218 -8 173 16T99 84T57 191T43 329Q43 407 61 472T115 585T207 659T339 686Q406 686 451 664T523 615L465 539Q439 565 402
579T325 594Q282 594 253 574T206 520T180 439T172 339Q172 282 179 236T202 156T243 104T304 85Q327 85 351 95T394 125T426 173T438 237V328H555V27Q555 -34 539 -75T497 -143T440 -189T377 -223L331 -144Z" />
<glyph unicode="H" glyph-name="H" horiz-adv-x="657" d="M468 308H189V0H70V677H189V395H468V677H587V0H468V308Z" />
<glyph unicode="I" glyph-name="I" horiz-adv-x="259" d="M70 677H189V0H70V677Z" />
<glyph unicode="J" glyph-name="J" horiz-adv-x="259" d="M189 25Q189 -35 173 -75T131 -144T74 -190T12 -223L-35 -144Q4 -125 25 -104T57 -62T68 -22T70 13V677H189V25Z" />
<glyph unicode="K" glyph-name="K" horiz-adv-x="591" d="M70 677H189V0H70V677ZM523 602T504 550T461 461T411 399T352 352L598 0H460L202 366V373Q294 407 344 484T422 677H539Q523 602 504 550Z" />
<glyph unicode="L" glyph-name="L" horiz-adv-x="442" d="M70 677H189V90H442V0H70V677Z" />
<glyph unicode="M" glyph-name="M" horiz-adv-x="811" d="M450 0H366L253 257Q248 268 241 287T224 329T205 377T186 429Q186 403 186 378T184 330T183 290T182 262L172 0H60L100 679H193L364 255Q373 232 384 205T406 152Q416 178 427 204T448 255L620 679H711L751
0H640L629 259Q628 284 627 330T624 425Q615 400 606 375T588 328T573 288T562 260L450 0Z" />
<glyph unicode="N" glyph-name="N" horiz-adv-x="659" d="M470 677H589V-1H490L262 355Q243 384 221 420T178 488Q181 456 183 421T186 354L189 0H70V679H163L398 327Q418 298 438 266T479 203Q477 235 475 267T473 323L470 677Z" />
<glyph unicode="O" glyph-name="O" horiz-adv-x="668" d="M416 686T469 662T556 594T607 487T623 344Q623 266 606 202T552 91T460 20T328 -6Q253 -6 200 16T112 82T61 188T45 330Q45 408 62 473T116 586T209 660T341 686Q416 686 469 662ZM283 594T254 575T207
521T182 441T174 341Q174 290 181 244T206 163T257 107T342 86Q385 86 414 105T462 157T487 235T495 334Q495 385 488 432T463 515T412 572T327 594Q283 594 254 575Z" />
<glyph unicode="P" glyph-name="P" horiz-adv-x="535" d="M70 677Q77 677 102 677T158 678T220 678T271 679Q393 679 451 625T509 475Q509 429 493 391T446 324T368 281T259 265H189V0H70V677ZM189 354H266Q329 354 356 387T383 471Q383 494 377 516T357 555T318
583T256 594Q234 594 218 594T189 593V354Z" />
<glyph unicode="Q" glyph-name="Q" horiz-adv-x="672" d="M656 -148Q614 -176 565 -195T460 -214Q395 -214 324 -180T189 -75L211 -9Q223 -11 234 -12T257 -14Q307 -14 351 9T427 76T479 184T498 332Q498 383 491 430T466 513T415 572T330 594Q286 594 256 574T206
519T177 439T168 344Q168 252 190 200T278 132L265 47Q205 51 163 78T94 146T55 236T43 335Q43 411 61 475T117 586T211 659T344 686Q419 686 472 662T560 594T610 486T626 343Q626 250 603 176T542 47T452 -40T345 -83Q368 -100 393 -107T444 -115Q480 -115 522
-102T615 -64L656 -148Z" />
<glyph unicode="R" glyph-name="R" horiz-adv-x="574" d="M70 677Q77 677 102 677T158 678T220 678T271 679Q395 679 452 631T509 494Q509 436 480 391T385 326Q413 310 435 282T478 214T521 120T572 0H443Q409 79 384 135T334 226T283 277T218 293H189V0H70V677ZM189
380H266Q322 380 352 405T383 479Q383 501 377 522T357 559T318 584T256 594H189V380Z" />
<glyph unicode="S" glyph-name="S" horiz-adv-x="507" d="M265 686Q300 686 332 680T390 665T435 647T461 633L412 547L399 554Q386 561 365 570T319 586T271 593Q235 593 209 576T182 523Q182 478 211 450T302 397Q342 381 373 364T427 323T460 270T472 198Q472
160 458 123T415 58T344 12T247 -6Q208 -6 173 2T110 20T61 42T30 59L72 151L90 141Q108 131 134 119T189 97T239 87Q292 87 318 113T344 186Q344 208 337 224T317 253T286 274T244 293Q199 312 164 331T103 374T65 430T52 506Q52 543 68 575T112 632T179 671T265
686Z" />
<glyph unicode="T" glyph-name="T" horiz-adv-x="493" d="M482 677L467 587H299V0H181V587H10V677H482Z" />
<glyph unicode="U" glyph-name="U" horiz-adv-x="635" d="M178 677V258Q178 165 217 126T323 86Q391 86 423 131T456 258V677H575V249Q575 197 562 151T517 70T435 15T310 -6Q239 -6 192 14T115 70T73 151T60 249V677H178Z" />
<glyph unicode="V" glyph-name="V" horiz-adv-x="582" d="M338 0H245L-8 677H119L203 435Q235 341 258 270T293 160Q304 198 326 267T383 433L470 677H591L338 0Z" />
<glyph unicode="W" glyph-name="W" horiz-adv-x="869" d="M461 411Q446 452 437 491Q432 472 428 453T416 411L286 0H198L10 677H129L217 338Q240 250 250 196Q257 224 266 258T290 336L396 677H485L591 336Q605 291 615 254T631 189Q635 217 642 254T662 336L750
677H871L683 0H595L461 411Z" />
<glyph unicode="X" glyph-name="X" horiz-adv-x="582" d="M0 0L210 355L20 677H155L250 506Q258 492 269 471T291 426Q302 449 313 470T333 505L429 677H563L372 354L582 0H446L334 200Q326 214 314 236T291 282L249 200L137 0H0Z" />
<glyph unicode="Y" glyph-name="Y" horiz-adv-x="542" d="M210 259L0 677H129L271 370L416 677H542L329 254V0H210V259Z" />
<glyph unicode="Z" glyph-name="Z" horiz-adv-x="528" d="M40 0V71L334 587Q314 585 293 585T248 584H57L41 677H481V606L193 91Q210 92 228 92T267 93H493V0H40Z" />
<glyph unicode="[" glyph-name="bracketleft" horiz-adv-x="369" d="M308 720V632H189V-98H308V-186H80V720H308Z" />
<glyph unicode="\" glyph-name="backslash" horiz-adv-x="417" d="M427 -126H308L-10 729H109L427 -126Z" />
<glyph unicode="]" glyph-name="bracketright" horiz-adv-x="369" d="M289 -186H61V-98H180V632H61V720H289V-186Z" />
<glyph unicode="^" glyph-name="asciicircum" horiz-adv-x="541" d="M384 303L296 496L271 557Q266 543 259 527T245 496L153 296L50 315L229 677H312L491 315L384 303Z" />
<glyph unicode="_" glyph-name="underscore" horiz-adv-x="500" d="M0 -80H500V-163H0V-80Z" />
<glyph unicode="`" glyph-name="grave" horiz-adv-x="500" d="M265 538Q231 560 196 586Q166 609 131 640T67 708L143 779L313 590L265 538Z" />
<glyph unicode="a" glyph-name="a" horiz-adv-x="536" d="M467 241Q467 181 474 141T491 75Q502 45 515 28L426 -8Q413 5 402 23Q393 39 385 61T375 115Q358 55 321 25T219 -6Q172 -6 138 11T80 61T46 140T35 242Q35 299 52 347T101 431T177 486T274 506Q304 506
336 502T397 492T444 483T467 477V241ZM263 74T284 91T320 135T344 198T353 271V415Q343 418 323 422T287 426Q249 426 225 413T185 377T164 322T158 252Q158 217 160 185T170 128T195 89T238 74Q263 74 284 91Z" />
<glyph unicode="b" glyph-name="b" horiz-adv-x="532" d="M65 705L179 725V420Q197 461 229 483T313 506Q360 506 394 489T452 439T486 360T497 258Q497 201 480 153T431 69T355 14T258 -6Q228 -6 194 -2T131 8Q98 14 65 23V705ZM269 426T248 409T212 364T188
301T179 229V84Q188 82 208 78T245 74Q282 74 307 87T347 123T368 178T374 248Q374 283 372 315T362 372T337 411T294 426Q269 426 248 409Z" />
<glyph unicode="c" glyph-name="c" horiz-adv-x="410" d="M335 381Q320 398 305 410T263 422Q248 422 230 418T195 396T169 344T158 252Q158 193 168 159T195 105T231 81T268 75Q282 75 297 77T326 83T350 90T366 95L394 23Q391 22 381 17T352 7T309 -2T253 -7Q195
-7 154 10T87 60T48 137T35 237Q35 303 52 354T101 439T174 492T264 510Q311 510 343 492T399 442L335 381Z" />
<glyph unicode="d" glyph-name="d" horiz-adv-x="536" d="M426 -8Q424 -7 417 1T402 25T385 62T375 115Q358 55 321 25T219 -6Q172 -6 138 11T80 61T46 140T35 242Q35 299 52 347T101 431T177 486T274 506Q292 506 312 504T353 499V725L467 705V241Q467 181 474
142T490 78T506 42T515 28L426 -8ZM263 75T284 92T320 136T344 199T353 271V415Q343 418 323 422T287 426Q249 426 225 413T185 377T164 322T158 252Q158 217 160 185T170 129T195 90T238 75Q263 75 284 92Z" />
<glyph unicode="e" glyph-name="e" horiz-adv-x="473" d="M35 304T53 355T104 440T181 492T276 510Q321 510 352 499T404 469T433 424T443 368Q443 332 423 300T366 243T275 204T156 188Q159 165 165 145T184 109T217 84T267 75Q289 75 314 80T360 92Q385 100
409 110L439 39Q413 26 383 16Q357 7 323 0T251 -7Q193 -7 152 10T85 60T47 137T35 237Q35 304 53 355ZM234 432T213 417T178 377T160 322T153 260Q201 262 234 272T289 298T319 332T329 368Q329 397 312 414T267 432Q234 432 213 417Z" />
<glyph unicode="f" glyph-name="f" horiz-adv-x="352" d="M328 615Q325 618 310 626T280 634Q271 634 258 632T233 621T213 596T204 554Q204 543 205 529T212 498H336L322 417H218V25Q218 -35 203 -75T162 -143T107 -189T46 -223L0 -147Q37 -128 58 -107T89 -64T102
-22T104 14V417H14V498H101Q97 513 96 529T94 559Q94 599 108 630T147 681T204 711T272 722Q311 722 336 710T377 680L328 615Z" />
<glyph unicode="g" glyph-name="g" horiz-adv-x="531" d="M140 -88Q155 -94 172 -100T208 -113T246 -123T285 -127Q341 -127 366 -94T391 -7Q391 45 369 98Q352 47 316 21T219 -6Q172 -6 138 11T80 61T46 140T35 242Q35 299 52 347T101 431T177 486T274 506Q298
506 325 503T379 496T429 486T470 477L465 202Q464 172 468 147T479 98T490 48T495 -7Q495 -113 441 -165T295 -217Q265 -217 235 -212T180 -199T136 -185T112 -175L140 -88ZM262 74T282 90T319 132T344 193T353 263V415Q343 418 323 422T287 426Q249 426 225 413T185
377T164 322T158 252Q158 217 160 185T170 128T195 89T238 74Q262 74 282 90Z" />
<glyph unicode="h" glyph-name="h" horiz-adv-x="540" d="M179 434Q208 472 248 489T334 506Q411 506 445 460T480 334V0H366V326Q366 368 351 392T300 417Q279 417 258 406T219 375T190 326T179 264V0H65V705L179 725V434Z" />
<glyph unicode="i" glyph-name="i" horiz-adv-x="256" d="M117 -4T89 27T61 109V498H175V119Q175 96 182 88T203 80Q207 80 211 80T220 81Q224 81 229 82L241 10Q234 6 223 3Q214 0 201 -2T170 -4Q117 -4 89 27ZM152 720T169 701T186 652Q186 622 169 602T117
582Q85 582 68 601T50 649Q50 680 67 700T120 720Q152 720 169 701Z" />
<glyph unicode="j" glyph-name="j" horiz-adv-x="244" d="M65 498H179V24Q179 -36 163 -76T123 -143T68 -189T7 -223L-39 -147Q-2 -128 19 -107T50 -64T62 -22T65 13V498ZM155 720T172 701T190 652Q190 622 173 602T120 582Q88 582 71 601T54 649Q54 680 71 700T123
720Q155 720 172 701Z" />
<glyph unicode="k" glyph-name="k" horiz-adv-x="520" d="M179 725V440Q187 450 199 461T231 483T275 500T333 507Q364 507 391 498T437 472T468 431T480 375Q480 330 462 301T420 255Q394 235 360 223L500 0H371L227 249L226 259Q234 261 256 268T303 288T345
320T364 367Q364 396 347 411T302 426Q264 426 240 411T203 377T184 341T179 321V0H65V705L179 725Z" />
<glyph unicode="l" glyph-name="l" horiz-adv-x="291" d="M114 -4T87 27T60 108V705L174 726V119Q174 96 183 87T209 78Q219 78 228 79T246 82Q255 84 262 86L276 14Q263 9 247 5Q233 1 214 -1T171 -4Q114 -4 87 27Z" />
<glyph unicode="m" glyph-name="m" horiz-adv-x="809" d="M636 0V326Q636 368 623 392T578 417Q559 417 540 407T504 376T478 328T468 266V0H355V326Q355 368 342 392T297 417Q277 417 258 406T223 372T198 319T188 248V0H74V252Q74 312 66 352T49 418Q38 447
25 465L115 501Q125 490 135 474Q143 460 151 440T164 393Q189 453 234 479T331 506Q382 506 410 480T453 413Q480 463 522 484T612 506Q651 506 677 494T719 459T742 405T749 334V0H636Z" />
<glyph unicode="n" glyph-name="n" horiz-adv-x="549" d="M375 0V323Q375 365 360 390T309 416Q286 416 265 405T226 371T199 318T188 247V0H74V252Q74 312 66 352T49 418Q38 447 25 465L115 501Q125 490 135 474Q143 460 151 440T164 393Q190 453 239 479T342
506Q419 506 453 460T488 334V0H375Z" />
<glyph unicode="o" glyph-name="o" horiz-adv-x="517" d="M378 510T430 442T482 255Q482 199 468 151T426 67T354 11T254 -10Q197 -10 156 7T87 58T48 138T35 244Q35 301 49 349T91 433T163 489T263 510Q378 510 430 442ZM224 426T206 413T177 377T162 322T158
254Q158 217 162 184T179 127T211 88T264 74Q293 74 311 87T340 123T355 178T359 245Q359 282 355 315T338 373T306 412T253 426Q224 426 206 413Z" />
<glyph unicode="p" glyph-name="p" horiz-adv-x="541" d="M74 -221V252Q74 312 66 352T49 418Q38 447 25 465L115 501Q127 489 137 471Q145 456 153 435T165 384Q182 444 219 475T322 506Q369 506 403 489T460 439T494 360T505 258Q505 201 488 153T440 69T364
14T266 -6Q247 -6 228 -4T188 0V-201L74 -221ZM278 426T257 409T221 364T197 301T188 229V85Q198 82 218 78T253 74Q291 74 316 87T356 123T377 178T383 248Q383 283 381 315T371 372T346 411T303 426Q278 426 257 409Z" />
<glyph unicode="q" glyph-name="q" horiz-adv-x="532" d="M467 -222L353 -201V62Q333 28 300 11T219 -6Q172 -6 138 11T80 61T46 140T35 242Q35 299 52 347T101 431T177 486T274 506Q304 506 337 501T400 491Q433 485 467 477V-222ZM262 75T283 91T319 135T344
198T353 271V415Q343 418 323 422T287 426Q249 426 225 413T185 377T164 322T158 252Q158 217 160 185T170 129T195 90T238 75Q262 75 283 91Z" />
<glyph unicode="r" glyph-name="r" horiz-adv-x="369" d="M270 394T252 385T220 361T197 323T188 274V0H74V252Q74 312 66 352T49 418Q38 447 25 465L115 501Q124 490 134 474Q142 460 150 441T163 396Q183 454 221 479T307 505Q330 505 350 500T369 494L337 383Q338
383 326 388T288 394Q270 394 252 385Z" />
<glyph unicode="s" glyph-name="s" horiz-adv-x="412" d="M212 510Q241 510 269 504T319 490Q345 481 367 471L333 393Q313 402 293 409Q276 415 256 420T215 426Q192 426 176 415T159 382Q159 325 242 293Q273 281 298 268T340 236T367 195T376 139Q376 111 365
84T331 36T276 3T202 -10Q169 -10 137 -3T80 14T39 31L24 38L61 122L74 115Q87 107 107 98T150 82T192 74Q227 74 244 88T261 125Q261 151 243 172T187 208Q110 237 77 274T43 370Q43 398 56 423T91 468T145 499T212 510Z" />
<glyph unicode="t" glyph-name="t" horiz-adv-x="361" d="M10 498H100L120 615L214 636V498H337L323 417H214V121Q214 95 228 88T259 80Q273 80 287 82T312 87Q325 90 337 94L356 19L347 16Q338 12 321 8T280 0T228 -4Q200 -4 177 2T136 21T110 56T100 108V417H10V498Z" />
<glyph unicode="u" glyph-name="u" horiz-adv-x="549" d="M361 498H475V241Q475 181 482 141T499 75Q510 45 523 28L434 -8Q422 3 412 20Q404 34 396 54T384 103Q357 44 308 19T206 -6Q127 -6 94 40T60 166V498H174V168Q174 126 189 102T240 78Q262 78 283 90T322
126T350 181T361 254V498Z" />
<glyph unicode="v" glyph-name="v" horiz-adv-x="524" d="M469 498L471 490Q472 481 474 467T477 434T479 396Q479 285 463 209T413 85T328 16T206 -5Q127 -5 94 40T60 166V498H174V169Q174 127 189 101T240 75Q276 75 300 102T338 172T358 271T364 384Q364 405
363 425T359 462T355 488L353 498H469Z" />
<glyph unicode="w" glyph-name="w" horiz-adv-x="771" d="M716 498L718 490Q719 481 721 467T724 434T726 396Q726 285 714 208T673 84T597 15T481 -7Q384 -7 348 73Q330 32 299 13T206 -7Q128 -7 94 38T60 163V498H174V172Q174 130 189 103T240 75Q286 75 311
120T336 269V498H449Q448 423 448 359Q448 331 448 303T447 250T447 205T447 172Q447 130 463 103T515 75Q550 75 569 102T598 172T609 271T611 384Q611 407 610 427T606 464T602 489L600 498H716Z" />
<glyph unicode="x" glyph-name="x" horiz-adv-x="480" d="M-5 0L162 264L16 498H148L211 395Q217 385 227 364T247 322Q259 340 270 358T291 393Q315 437 325 468T336 498H454Q454 499 442 465T400 375Q383 345 361 316T318 263L480 0H350L276 129L237 202L198
128L123 0H-5Z" />
<glyph unicode="y" glyph-name="y" horiz-adv-x="538" d="M472 202Q472 172 476 147T486 98T497 48T502 -7Q502 -113 448 -165T302 -217Q272 -217 242 -212T187 -199T143 -185T119 -175L147 -88Q161 -94 178 -100T214 -113T253 -123T292 -127Q348 -127 373 -94T398
-7Q398 41 378 92Q350 39 304 17T206 -6Q127 -6 94 40T60 166V498H174V169Q174 127 189 103T240 79Q259 79 280 90T319 120T348 167T360 227V498H477L472 202Z" />
<glyph unicode="z" glyph-name="z" horiz-adv-x="418" d="M30 0V68L251 418Q200 415 150 415H52L38 498H384V430L166 80Q211 83 256 83H393V0H30Z" />
<glyph unicode="{" glyph-name="braceleft" horiz-adv-x="364" d="M116 661T152 692T258 724Q296 724 343 712L321 628Q307 633 297 635T277 637Q263 637 254 633T240 621T232 607T230 593Q230 548 236 504T243 420Q243 398 240 378T229 338T204 300T160 265Q187
249 203 231T228 194T240 154T243 112Q243 73 237 29T230 -61Q230 -67 232 -75T239 -89T254 -100T277 -105Q286 -105 296 -103T321 -96L343 -180Q296 -192 258 -192Q189 -192 153 -161T116 -77Q116 -23 123 29T130 126Q130 165 113 191T60 225V307Q95 315 112 341T130
406Q130 451 123 503T116 609Q116 661 152 692Z" />
<glyph unicode="|" glyph-name="bar" horiz-adv-x="309" d="M209 729V-126H100V729H209Z" />
<glyph unicode="}" glyph-name="braceright" horiz-adv-x="364" d="M247 555T240 503T233 406Q233 367 250 341T303 307V225Q268 217 251 191T233 126Q233 81 240 29T247 -77Q247 -129 211 -160T106 -192Q68 -192 20 -180L43 -96Q70 -105 87 -105Q101 -105 110
-101T124 -90T132 -75T134 -61Q134 -16 128 28T121 112Q121 133 124 153T135 193T160 231T204 265Q177 281 161 299T136 337T124 377T121 420Q121 459 127 503T134 593Q134 599 132 606T125 621T110 632T87 637Q70 637 43 628L20 712Q68 724 106 724Q175 724 211
693T247 609Q247 555 240 503Z" />
<glyph unicode="~" glyph-name="asciitilde" horiz-adv-x="516" d="M203 390T224 381T264 360T300 340T341 330Q356 330 367 332T387 341T404 355T424 376L466 330Q453 306 435 288Q419 272 396 260T341 247Q312 247 291 256T252 277T216 297T174 307Q159 307
149 305T129 296T112 282T92 261L50 308Q62 331 80 349Q95 364 118 377T174 390Q203 390 224 381Z" />
<glyph unicode="&#xa0;" glyph-name="uni00A0" horiz-adv-x="255" />
<glyph unicode="&#xa1;" glyph-name="exclamdown" horiz-adv-x="319" d="M141 355Q104 355 85 377T66 432Q66 462 84 484T138 506Q176 506 195 484T214 430Q214 397 195 376T141 355ZM92 275H190L219 -182H92V275Z" />
<glyph unicode="&#xa2;" glyph-name="cent" horiz-adv-x="458" d="M242 -42V74Q143 83 99 145T55 310Q55 368 69 413T108 491T167 542T242 568V654H320V567Q353 561 379 545T423 503L358 441Q350 450 341 458T320 473V158Q332 160 344 163T367 169T383 174L389
175L417 103L410 100Q403 97 391 93T360 84T320 76V-42H242ZM175 284T180 256T195 209T217 179T242 163V478Q229 474 217 465T196 439T181 394T175 325Q175 284 180 256Z" />
<glyph unicode="&#xa3;" glyph-name="sterling" horiz-adv-x="563" d="M134 341L141 429Q144 476 160 514T205 579T270 621T355 636Q389 636 415 631T461 619T492 604T512 591L464 504L457 510Q449 516 436 523T404 537T362 543Q344 543 327 538T297 521T273 489T260
436L250 341H432L418 251H240L236 212Q231 167 219 138T194 88Q231 94 268 94Q297 94 324 91T381 88Q396 88 412 91T443 99Q459 104 475 111L509 27L499 22Q488 17 470 11T429 -1T382 -6Q337 -6 302 0T233 6Q204 6 179 5T135 2Q113 0 95 -2L67 65Q81 74 92 90Q102
104 110 125T121 178L127 251H60V341H134Z" />
<glyph unicode="&#xa4;" glyph-name="currency" horiz-adv-x="588" d="M71 325T83 361T118 426L32 504L100 572L183 480Q207 493 234 500T294 507Q357 507 406 481L488 572L557 504L470 426Q493 397 505 361T517 283Q517 241 505 206T470 141L558 63L490 -5L406
87Q381 74 353 67T292 60Q230 60 181 86L98 -5L30 63L116 140Q71 199 71 283Q71 325 83 361ZM156 256T166 228T194 180T237 147T292 135Q323 135 349 146T393 176T422 221T432 280Q432 312 422 340T394 388T349 421T292 433Q262 433 237 422T194 392T166 346T156
288Q156 256 166 228Z" />
<glyph unicode="&#xa5;" glyph-name="yen" horiz-adv-x="592" d="M196 341L30 637H159L295 362L435 637H561L393 341H475V253H353V191H475V103H353V0H234V103H114V191H234V253H114V341H196Z" />
<glyph unicode="&#xa6;" glyph-name="brokenbar" horiz-adv-x="309" d="M100 353V729H209V353H100ZM100 -126V248H209V-126H100Z" />
<glyph unicode="&#xa7;" glyph-name="section" horiz-adv-x="558" d="M377 191T363 211T326 251T276 291T221 333Q212 330 203 324T185 309T171 288T166 258Q166 235 180 215T216 175T266 135T321 93Q330 96 340 102T358 117T372 139T377 169Q377 191 363 211ZM230
-216T208 -212T168 -203T140 -194T128 -188L163 -110Q165 -111 173 -114T194 -122T221 -129T251 -132Q308 -132 308 -79Q308 -52 289 -29T242 15T180 59T118 108Q89 135 70 168T50 245Q50 278 61 302T88 345T124 374T159 393Q141 416 131 441T120 495Q120 526 132
553T166 600T219 631T289 643Q339 643 372 631T415 615L380 537Q372 542 348 550T292 559Q265 559 250 546T235 506Q235 482 249 462T286 424T337 386T392 346Q412 330 430 313T463 276T485 232T493 181Q493 148 482 124T455 81T419 52T384 33Q401 11 412 -14T423
-68Q423 -99 411 -126T377 -173T324 -204T254 -216Q230 -216 208 -212Z" />
<glyph unicode="&#xa8;" glyph-name="dieresis" horiz-adv-x="500" d="M212 605T196 587T148 568Q119 568 104 586T88 630Q88 658 104 676T151 695Q180 695 196 677T212 632Q212 605 196 587ZM412 605T396 587T348 568Q319 568 303 586T287 630Q287 658 303 676T351
695Q380 695 396 677T412 632Q412 605 396 587Z" />
<glyph unicode="&#xa9;" glyph-name="copyright" horiz-adv-x="782" d="M45 416T71 479T143 589T254 660T394 686Q470 686 533 661T641 589T712 480T737 340Q737 264 711 201T639 91T528 20T387 -6Q311 -6 248 19T140 91T70 200T45 340Q45 416 71 479ZM130 288T149
237T202 149T285 89T390 67Q448 67 496 87T578 142T632 226T651 333Q651 391 632 442T579 531T497 591T391 613Q334 613 286 593T204 538T150 454T130 346Q130 288 149 237ZM464 453Q461 455 447 463T410 472Q390 472 377 462T356 435T345 394T341 344Q341 290
358 253T415 216Q442 216 460 221T483 229L505 163Q504 162 496 159T474 153T442 146T403 143Q325 143 286 192T247 338Q247 384 257 422T289 487T342 530T418 545Q455 545 477 533T513 506L464 453Z" />
<glyph unicode="&#xaa;" glyph-name="ordfeminine" horiz-adv-x="400" d="M337 505Q337 466 342 438T353 393Q360 373 370 360L304 334Q296 340 289 350Q283 358 277 369T265 396Q239 335 167 335Q99 335 67 382T35 507Q35 546 47 579T81 635T133 672T201 686Q221
686 245 683T289 677T324 670L337 667V505ZM193 399T205 411T227 442T242 487T248 539V618Q239 620 229 622T210 624Q164 624 148 593T132 513Q132 492 133 472T139 435T153 409T178 399Q193 399 205 411Z" />
<glyph unicode="&#xab;" glyph-name="guillemotleft" horiz-adv-x="567" d="M265 28Q225 63 186 100Q153 132 116 170T50 245Q79 282 116 320T186 390Q225 427 265 462L312 408L182 245L312 82L265 28ZM484 28Q444 63 405 100Q372 132 336 170T270 245Q299 282
335 320T405 390Q444 427 484 462L531 408L401 245L531 82L484 28Z" />
<glyph unicode="&#xac;" glyph-name="logicalnot" horiz-adv-x="511" d="M50 395H460V182H374V307H50V395Z" />
<glyph unicode="&#xad;" glyph-name="uni00AD" horiz-adv-x="383" d="M50 361H333V278H50V361Z" />
<glyph unicode="&#xae;" glyph-name="registered" horiz-adv-x="584" d="M60 505T77 547T126 621T200 669T294 686Q345 686 387 669T460 621T507 548T524 454Q524 403 507 361T458 287T384 239T290 222Q239 222 197 239T124 287T77 360T60 454Q60 505 77 547ZM125
420T137 388T171 331T223 293T290 279Q327 279 357 291T410 326T444 380T457 449Q457 486 445 518T411 575T358 613T290 627Q254 627 224 615T172 580T138 526T125 457Q125 420 137 388ZM332 581T354 563T376 510Q376 491 366 477T337 451Q353 446 364 423T395
345L345 327Q333 357 325 377T309 410T292 427T267 433H262V325H209V580Q212 580 221 580T242 580T265 581T284 581Q332 581 354 563ZM262 549V464Q264 464 272 464T285 466Q308 471 314 479T321 506Q321 522 312 535T277 549H262Z" />
<glyph unicode="&#xaf;" glyph-name="overscore" horiz-adv-x="500" d="M90 683H412V600H90V683Z" />
<glyph unicode="&#xb0;" glyph-name="degree" horiz-adv-x="310" d="M40 655T72 688T156 721Q207 721 238 688T270 604Q270 554 238 521T154 488Q103 488 72 520T40 604Q40 655 72 688ZM104 579T117 562T155 545Q180 545 193 560T207 604Q207 630 194 647T155
664Q131 664 118 649T104 605Q104 579 117 562Z" />
<glyph unicode="&#xb1;" glyph-name="plusminus" horiz-adv-x="513" d="M61 346H210V498H304V346H453V257H304V120H452V32H60V120H210V257H61V346Z" />
<glyph unicode="&#xb2;" glyph-name="uni00B2" horiz-adv-x="317" d="M35 647Q64 663 94 674T159 686Q210 686 239 664T269 592Q269 553 245 517T181 439Q167 425 140 406H276V336H36V407Q48 415 60 426Q71 435 84 447T110 474Q147 514 163 537T179 583Q179 618
151 618Q137 618 123 613T97 602T77 591T67 584L35 647Z" />
<glyph unicode="&#xb3;" glyph-name="uni00B3" horiz-adv-x="328" d="M214 686T240 663T267 603Q267 574 253 557T223 530Q252 518 267 496T282 446Q282 424 276 403T254 366T213 339T150 329Q124 329 94 338T35 363L61 424Q75 416 89 410Q101 405 116 401T147
397Q165 397 180 408T195 445Q195 463 186 475T159 488Q146 488 137 487T120 485Q112 483 105 482L84 534Q98 538 114 541T145 551T169 566T179 591Q179 602 172 610T154 618Q140 618 122 613T73 593L43 656Q75 670 102 678T163 686Q214 686 240 663Z" />
<glyph unicode="&#xb4;" glyph-name="acute" horiz-adv-x="500" d="M178 590L348 779L424 708Q394 671 360 640T296 586Q262 560 227 538L178 590Z" />
<glyph unicode="&#xb5;" glyph-name="uni00B5" horiz-adv-x="554" d="M65 498H179V164Q179 126 202 102T260 78Q280 78 299 88T333 118T357 165T366 226V498H480V241Q480 182 487 143T502 79T518 43T528 28L439 -8Q430 0 416 19T391 86Q354 -6 260 -6Q214 -6 179
18V-201L65 -222V498Z" />
<glyph unicode="&#xb6;" glyph-name="paragraph" horiz-adv-x="578" d="M290 265Q175 265 118 321T60 473Q60 570 118 624T290 679V265ZM507 25Q507 -35 491 -75T449 -144T392 -190T330 -223L284 -144Q323 -125 344 -104T376 -62T387 -22T389 13V677H507V25Z" />
<glyph unicode="&#xb7;" glyph-name="middot" horiz-adv-x="249" d="M161 393T179 372T198 318Q198 286 179 264T123 242Q88 242 69 264T50 316Q50 348 69 370T126 393Q161 393 179 372Z" />
<glyph unicode="&#xb8;" glyph-name="cedilla" horiz-adv-x="500" d="M274 3L263 -47Q302 -50 327 -69T353 -126Q353 -153 343 -171T315 -199T277 -214T235 -218Q211 -218 189 -213T149 -201L165 -147Q176 -151 194 -155T229 -160Q256 -160 267 -152T279 -129Q279
-117 270 -109T248 -96T218 -88T187 -85L209 3H274Z" />
<glyph unicode="&#xb9;" glyph-name="uni00B9" horiz-adv-x="266" d="M195 677V336H113V588Q81 557 45 541L10 604L23 609Q35 613 54 622T95 645T136 677H195Z" />
<glyph unicode="&#xba;" glyph-name="ordmasculine" horiz-adv-x="409" d="M290 686T327 640T364 512Q364 474 354 441T324 384T274 346T202 332Q119 332 82 378T45 504Q45 543 55 576T85 634T136 672T208 686Q290 686 327 640ZM165 619T154 589T142 511Q142 488
144 468T154 432T175 408T209 399Q244 399 255 429T267 507Q267 530 265 550T255 586T234 610T201 619Q165 619 154 589Z" />
<glyph unicode="&#xbb;" glyph-name="guillemotright" horiz-adv-x="567" d="M302 462Q341 427 380 390Q413 358 450 320T516 245Q487 208 450 170T380 100Q341 63 302 28L255 82L385 245L255 408L302 462ZM83 462Q122 427 161 390Q194 358 231 320T297 245Q268
208 231 170T161 100Q122 63 83 28L35 82L165 245L35 408L83 462Z" />
<glyph unicode="&#xbc;" glyph-name="onequarter" horiz-adv-x="711" d="M412 587H505L232 0H138L412 587ZM190 586V245H108V497Q76 466 40 450L5 513L18 518Q30 522 49 531T90 554T131 586H190ZM647 155H696L686 93H647V0H564V93H407V132L497 350H579L496 155H564V247L647
267V155Z" />
<glyph unicode="&#xbd;" glyph-name="onehalf" horiz-adv-x="725" d="M412 587H505L232 0H138L412 587ZM190 586V245H108V497Q76 466 40 450L5 513L18 518Q30 522 49 531T90 554T131 586H190ZM443 310Q472 327 502 338T567 349Q617 349 647 327T677 256Q677 217
653 181T588 103Q581 96 571 88T548 70H684V0H444V71Q456 79 468 90Q479 99 492 111T518 138Q555 178 571 201T587 247Q587 281 559 281Q545 281 531 277T505 266T485 255T475 248L443 310Z" />
<glyph unicode="&#xbe;" glyph-name="threequarters" horiz-adv-x="787" d="M462 587H556L282 0H189L462 587ZM699 146H748L738 83H699V0H616V83H459V123L550 340H632L549 146H616V238L699 258V146ZM185 587T212 564T239 504Q239 475 225 458T194 431Q223 419
238 397T254 347Q254 325 248 304T225 267T184 240T121 230Q95 230 65 239T6 264L32 325Q46 317 60 311Q72 306 87 302T118 298Q136 298 151 309T167 346Q167 364 158 376T130 389Q117 389 108 388T91 386Q83 384 76 383L55 435Q69 439 85 442T116 452T140 467T150
492Q150 503 144 511T126 519Q112 519 94 514T44 494L15 557Q46 571 73 579T134 587Q185 587 212 564Z" />
<glyph unicode="&#xbf;" glyph-name="questiondown" horiz-adv-x="434" d="M126 -192T75 -157T24 -42Q24 -13 33 13T56 64T89 112T126 158Q154 193 176 227T210 298L294 275Q294 223 272 180T223 101T174 34T152 -28Q152 -65 173 -85T229 -105Q245 -105 258 -102T286
-94T316 -81T354 -63L393 -142Q352 -161 309 -176T214 -192Q126 -192 75 -157ZM211 355T192 376T173 430Q173 462 192 484T249 506Q284 506 302 484T321 432Q321 400 302 378T246 355Q211 355 192 376Z" />
<glyph unicode="&#xc0;" glyph-name="Agrave" horiz-adv-x="605" d="M255 677H349L610 0H483L421 177H177L113 0H-5L255 677ZM390 265Q358 355 335 428T300 544Q286 499 263 426T209 265H390ZM296 718L270 726Q244 734 206 750T124 790T45 846L97 928L324 776L296 718Z" />
<glyph unicode="&#xc1;" glyph-name="Aacute" horiz-adv-x="605" d="M255 677H349L610 0H483L421 177H177L113 0H-5L255 677ZM390 265Q358 355 335 428T300 544Q286 499 263 426T209 265H390ZM271 776L498 928L550 846Q515 814 472 790T390 750T325 726L299 718L271 776Z" />
<glyph unicode="&#xc2;" glyph-name="Acircumflex" horiz-adv-x="605" d="M255 677H349L610 0H483L421 177H177L113 0H-5L255 677ZM390 265Q358 355 335 428T300 544Q286 499 263 426T209 265H390ZM102 771L300 928L498 771L454 718L442 724Q429 729 407 740T358
769T300 808Q270 786 242 769T193 741T159 724L146 718L102 771Z" />
<glyph unicode="&#xc3;" glyph-name="Atilde" horiz-adv-x="605" d="M255 677H349L610 0H483L421 177H177L113 0H-5L255 677ZM390 265Q358 355 335 428T300 544Q286 499 263 426T209 265H390ZM137 834Q148 840 160 845Q171 850 185 853T216 857Q253 857 292 847T369
837Q386 837 400 839T426 844Q438 847 449 851V777Q438 770 426 765Q415 760 401 757T369 754Q332 754 293 764T216 774Q199 774 185 772T160 767Q148 763 137 760V834Z" />
<glyph unicode="&#xc4;" glyph-name="Adieresis" horiz-adv-x="605" d="M255 677H349L610 0H483L421 177H177L113 0H-5L255 677ZM390 265Q358 355 335 428T300 544Q286 499 263 426T209 265H390ZM264 784T248 766T200 747Q171 747 156 765T140 809Q140 837 156
855T203 874Q232 874 248 856T264 811Q264 784 248 766ZM464 784T448 766T400 747Q371 747 355 765T339 809Q339 837 355 855T403 874Q432 874 448 856T464 811Q464 784 448 766Z" />
<glyph unicode="&#xc5;" glyph-name="Aring" horiz-adv-x="605" d="M202 770T230 798T303 827Q346 827 373 799T401 727Q401 701 390 680T361 645L610 0H483L421 177H177L113 0H-5L242 644Q223 658 213 679T202 727Q202 770 230 798ZM390 265Q358 355 335 428T300
544Q286 499 263 426T209 265H390ZM258 709T265 696T287 677H314Q345 685 345 727Q345 750 334 763T301 777Q258 777 258 728Q258 709 265 696Z" />
<glyph unicode="&#xc6;" glyph-name="AE" horiz-adv-x="876" d="M435 177H234L133 0H-5L405 677H835V587H552V398H785L770 307H552V90H850V0H435V177ZM429 542T412 510T374 436T328 349T284 265H435V555Q429 542 412 510Z" />
<glyph unicode="&#xc7;" glyph-name="Ccedilla" horiz-adv-x="523" d="M442 541Q418 567 392 580T330 594Q287 594 258 575T210 521T184 440T176 341Q176 288 183 242T209 161T259 106T339 86Q362 86 383 90T421 98T450 107T465 112L493 28L483 24Q472 19 453
14T408 3T349 -5L340 -47Q379 -50 404 -69T430 -126Q430 -153 420 -171T392 -199T354 -214T313 -218Q288 -218 266 -213T226 -201L242 -147Q253 -151 271 -155T306 -160Q333 -160 344 -152T356 -129Q356 -117 347 -109T325 -96T295 -88T264 -85L284 -4Q166 6 107
91T47 330Q47 409 65 474T119 587T211 660T342 686Q402 686 440 664T503 614L442 541Z" />
<glyph unicode="&#xc8;" glyph-name="Egrave" horiz-adv-x="513" d="M70 677H472V587H189V398H422L407 307H189V90H487V0H70V677ZM279 718L253 726Q227 734 189 750T107 790T28 846L80 928L307 776L279 718Z" />
<glyph unicode="&#xc9;" glyph-name="Eacute" horiz-adv-x="513" d="M70 677H472V587H189V398H422L407 307H189V90H487V0H70V677ZM255 776L482 928L534 846Q499 814 456 790T374 750T309 726L283 718L255 776Z" />
<glyph unicode="&#xca;" glyph-name="Ecircumflex" horiz-adv-x="513" d="M70 677H472V587H189V398H422L407 307H189V90H487V0H70V677ZM85 771L283 928L481 771L437 718L425 724Q412 729 390 740T341 769T283 808Q253 786 225 769T176 741T142 724L129 718L85 771Z" />
<glyph unicode="&#xcb;" glyph-name="Edieresis" horiz-adv-x="513" d="M70 677H472V587H189V398H422L407 307H189V90H487V0H70V677ZM218 784T202 766T154 747Q125 747 110 765T94 809Q94 837 110 855T157 874Q186 874 202 856T218 811Q218 784 202 766ZM418 784T402
766T354 747Q325 747 309 765T293 809Q293 837 309 855T357 874Q386 874 402 856T418 811Q418 784 402 766Z" />
<glyph unicode="&#xcc;" glyph-name="Igrave" horiz-adv-x="259" d="M70 677H189V0H70V677ZM126 718L100 726Q74 734 36 750T-46 790T-125 846L-73 928L154 776L126 718Z" />
<glyph unicode="&#xcd;" glyph-name="Iacute" horiz-adv-x="259" d="M70 677H189V0H70V677ZM102 776L329 928L381 846Q346 814 303 790T221 750T156 726L130 718L102 776Z" />
<glyph unicode="&#xce;" glyph-name="Icircumflex" horiz-adv-x="259" d="M70 677H189V0H70V677ZM-68 771L130 928L328 771L284 718L272 724Q259 729 237 740T188 769T130 808Q100 786 72 769T23 741T-11 724L-24 718L-68 771Z" />
<glyph unicode="&#xcf;" glyph-name="Idieresis" horiz-adv-x="259" d="M70 677H189V0H70V677ZM92 784T76 766T28 747Q-1 747 -16 765T-32 809Q-32 837 -16 855T31 874Q60 874 76 856T92 811Q92 784 76 766ZM292 784T276 766T228 747Q199 747 183 765T167 809Q167
837 183 855T231 874Q260 874 276 856T292 811Q292 784 276 766Z" />
<glyph unicode="&#xd0;" glyph-name="Eth" horiz-adv-x="643" d="M70 303H0V391H70V677Q77 677 100 677T152 678T212 678T266 679Q436 679 518 595T600 343Q600 176 516 87T253 -2Q222 -2 193 -2T139 -1T96 -1T70 0V303ZM229 590T214 590T189 589V391H369V303H189V88Q200
87 217 87T268 87Q373 87 422 148T471 332Q471 390 460 437T422 519T354 571T252 590Q229 590 214 590Z" />
<glyph unicode="&#xd1;" glyph-name="Ntilde" horiz-adv-x="659" d="M470 677H589V-1H490L262 355Q243 384 221 420T178 488Q181 456 183 421T186 354L189 0H70V679H163L398 327Q418 298 438 266T479 203Q477 235 475 267T473 323L470 677ZM173 842Q184 848 196
853Q207 858 221 861T252 865Q289 865 328 855T405 845Q422 845 436 847T462 852Q474 855 485 859V785Q474 778 462 773Q451 768 437 765T405 762Q368 762 329 772T252 782Q235 782 221 780T196 775Q184 771 173 768V842Z" />
<glyph unicode="&#xd2;" glyph-name="Ograve" horiz-adv-x="668" d="M416 686T469 662T556 594T607 487T623 344Q623 266 606 202T552 91T460 20T328 -6Q253 -6 200 16T112 82T61 188T45 330Q45 408 62 473T116 586T209 660T341 686Q416 686 469 662ZM283 594T254
575T207 521T182 441T174 341Q174 290 181 244T206 163T257 107T342 86Q385 86 414 105T462 157T487 235T495 334Q495 385 488 432T463 515T412 572T327 594Q283 594 254 575ZM328 718L302 726Q276 734 238 750T156 790T77 846L129 928L356 776L328 718Z" />
<glyph unicode="&#xd3;" glyph-name="Oacute" horiz-adv-x="668" d="M416 686T469 662T556 594T607 487T623 344Q623 266 606 202T552 91T460 20T328 -6Q253 -6 200 16T112 82T61 188T45 330Q45 408 62 473T116 586T209 660T341 686Q416 686 469 662ZM283 594T254
575T207 521T182 441T174 341Q174 290 181 244T206 163T257 107T342 86Q385 86 414 105T462 157T487 235T495 334Q495 385 488 432T463 515T412 572T327 594Q283 594 254 575ZM303 776L530 928L582 846Q547 814 504 790T422 750T357 726L331 718L303 776Z" />
<glyph unicode="&#xd4;" glyph-name="Ocircumflex" horiz-adv-x="668" d="M416 686T469 662T556 594T607 487T623 344Q623 266 606 202T552 91T460 20T328 -6Q253 -6 200 16T112 82T61 188T45 330Q45 408 62 473T116 586T209 660T341 686Q416 686 469 662ZM283
594T254 575T207 521T182 441T174 341Q174 290 181 244T206 163T257 107T342 86Q385 86 414 105T462 157T487 235T495 334Q495 385 488 432T463 515T412 572T327 594Q283 594 254 575ZM134 771L332 928L530 771L486 718L474 724Q461 729 439 740T390 769T332 808Q302
786 274 769T225 741T191 724L178 718L134 771Z" />
<glyph unicode="&#xd5;" glyph-name="Otilde" horiz-adv-x="668" d="M416 686T469 662T556 594T607 487T623 344Q623 266 606 202T552 91T460 20T328 -6Q253 -6 200 16T112 82T61 188T45 330Q45 408 62 473T116 586T209 660T341 686Q416 686 469 662ZM283 594T254
575T207 521T182 441T174 341Q174 290 181 244T206 163T257 107T342 86Q385 86 414 105T462 157T487 235T495 334Q495 385 488 432T463 515T412 572T327 594Q283 594 254 575ZM169 834Q180 840 192 845Q203 850 217 853T248 857Q285 857 324 847T401 837Q418 837
432 839T458 844Q470 847 481 851V777Q470 770 458 765Q447 760 433 757T401 754Q364 754 325 764T248 774Q231 774 217 772T192 767Q180 763 169 760V834Z" />
<glyph unicode="&#xd6;" glyph-name="Odieresis" horiz-adv-x="668" d="M416 686T469 662T556 594T607 487T623 344Q623 266 606 202T552 91T460 20T328 -6Q253 -6 200 16T112 82T61 188T45 330Q45 408 62 473T116 586T209 660T341 686Q416 686 469 662ZM283 594T254
575T207 521T182 441T174 341Q174 290 181 244T206 163T257 107T342 86Q385 86 414 105T462 157T487 235T495 334Q495 385 488 432T463 515T412 572T327 594Q283 594 254 575ZM296 784T280 766T232 747Q203 747 188 765T172 809Q172 837 188 855T235 874Q264 874
280 856T296 811Q296 784 280 766ZM496 784T480 766T432 747Q403 747 387 765T371 809Q371 837 387 855T435 874Q464 874 480 856T496 811Q496 784 480 766Z" />
<glyph unicode="&#xd7;" glyph-name="multiply" horiz-adv-x="516" d="M128 495L256 365L387 497L452 430L322 300L456 167L395 104L261 239L125 104L60 170L195 304L67 432L128 495Z" />
<glyph unicode="&#xd8;" glyph-name="Oslash" horiz-adv-x="668" d="M382 686T414 679L439 742L537 702L511 638Q569 596 596 521T623 344Q623 266 606 202T552 91T460 20T328 -6Q287 -6 253 0L228 -63L131 -23L156 40Q98 81 72 154T45 330Q45 408 62 473T116
586T209 660T341 686Q382 686 414 679ZM495 385T488 432T462 516L290 92Q312 86 342 86Q385 86 414 105T462 157T487 235T495 334Q495 385 488 432ZM283 594T254 575T207 521T182 441T174 341Q174 290 180 244T206 163L377 587Q366 590 354 592T327 594Q283 594
254 575Z" />
<glyph unicode="&#xd9;" glyph-name="Ugrave" horiz-adv-x="635" d="M178 677V258Q178 165 217 126T323 86Q391 86 423 131T456 258V677H575V249Q575 197 562 151T517 70T435 15T310 -6Q239 -6 192 14T115 70T73 151T60 249V677H178ZM314 718L288 726Q262 734
224 750T142 790T63 846L115 928L342 776L314 718Z" />
<glyph unicode="&#xda;" glyph-name="Uacute" horiz-adv-x="635" d="M178 677V258Q178 165 217 126T323 86Q391 86 423 131T456 258V677H575V249Q575 197 562 151T517 70T435 15T310 -6Q239 -6 192 14T115 70T73 151T60 249V677H178ZM290 776L517 928L569 846Q534
814 491 790T409 750T344 726L318 718L290 776Z" />
<glyph unicode="&#xdb;" glyph-name="Ucircumflex" horiz-adv-x="635" d="M178 677V258Q178 165 217 126T323 86Q391 86 423 131T456 258V677H575V249Q575 197 562 151T517 70T435 15T310 -6Q239 -6 192 14T115 70T73 151T60 249V677H178ZM120 771L318 928L516
771L472 718L460 724Q447 729 425 740T376 769T318 808Q288 786 260 769T211 741T177 724L164 718L120 771Z" />
<glyph unicode="&#xdc;" glyph-name="Udieresis" horiz-adv-x="635" d="M178 677V258Q178 165 217 126T323 86Q391 86 423 131T456 258V677H575V249Q575 197 562 151T517 70T435 15T310 -6Q239 -6 192 14T115 70T73 151T60 249V677H178ZM279 784T263 766T215 747Q186
747 171 765T155 809Q155 837 171 855T218 874Q247 874 263 856T279 811Q279 784 263 766ZM479 784T463 766T415 747Q386 747 370 765T354 809Q354 837 370 855T418 874Q447 874 463 856T479 811Q479 784 463 766Z" />
<glyph unicode="&#xdd;" glyph-name="Yacute" horiz-adv-x="543" d="M210 259L0 677H129L271 370L416 677H542L329 254V0H210V259ZM245 776L472 928L524 846Q489 814 446 790T364 750T299 726L273 718L245 776Z" />
<glyph unicode="&#xde;" glyph-name="Thorn" horiz-adv-x="537" d="M70 677H189V555H271Q395 555 453 502T511 352Q511 257 448 200T259 142H189V0H70V677ZM189 230H266Q329 230 356 263T383 348Q383 372 377 394T357 433T318 460T256 471Q234 471 218 471T189 470V230Z" />
<glyph unicode="&#xdf;" glyph-name="germandbls" horiz-adv-x="578" d="M209 25Q209 -35 194 -75T153 -143T98 -189T38 -223L-5 -154Q32 -135 52 -112T82 -66T93 -22T95 14V478Q95 533 109 578T153 656T226 707T329 725Q375 725 408 713T462 682T494 637T505
585Q505 542 487 516T448 472T408 439T390 402Q390 379 401 363T430 332T468 304T506 269T535 221T547 152Q547 117 534 88T496 37T438 5T363 -7Q339 -7 318 -2T279 9T250 22T236 30L270 105Q274 103 282 99T301 91T324 83T348 79Q387 79 409 94T432 143Q432 167
421 183T394 212T358 239T323 272T295 317T284 383Q284 420 301 445T338 490T375 529T392 575Q392 609 368 623T313 638Q283 638 263 625T231 590T214 541T209 486V25Z" />
<glyph unicode="&#xe0;" glyph-name="agrave" horiz-adv-x="536" d="M467 241Q467 181 474 141T491 75Q502 45 515 28L426 -8Q413 5 402 23Q393 39 385 61T375 115Q358 55 321 25T219 -6Q172 -6 138 11T80 61T46 140T35 242Q35 299 52 347T101 431T177 486T274
506Q304 506 336 502T397 492T444 483T467 477V241ZM263 74T284 91T320 135T344 198T353 271V415Q343 418 323 422T287 426Q249 426 225 413T185 377T164 322T158 252Q158 217 160 185T170 128T195 89T238 74Q263 74 284 91ZM268 538Q234 560 199 586Q169 609 134
640T70 708L146 779L316 590L268 538Z" />
<glyph unicode="&#xe1;" glyph-name="aacute" horiz-adv-x="536" d="M467 241Q467 181 474 141T491 75Q502 45 515 28L426 -8Q413 5 402 23Q393 39 385 61T375 115Q358 55 321 25T219 -6Q172 -6 138 11T80 61T46 140T35 242Q35 299 52 347T101 431T177 486T274
506Q304 506 336 502T397 492T444 483T467 477V241ZM263 74T284 91T320 135T344 198T353 271V415Q343 418 323 422T287 426Q249 426 225 413T185 377T164 322T158 252Q158 217 160 185T170 128T195 89T238 74Q263 74 284 91ZM210 590L380 779L456 708Q426 671 392
640T328 586Q294 560 259 538L210 590Z" />
<glyph unicode="&#xe2;" glyph-name="acircumflex" horiz-adv-x="536" d="M467 241Q467 181 474 141T491 75Q502 45 515 28L426 -8Q413 5 402 23Q393 39 385 61T375 115Q358 55 321 25T219 -6Q172 -6 138 11T80 61T46 140T35 242Q35 299 52 347T101 431T177 486T274
506Q304 506 336 502T397 492T444 483T467 477V241ZM263 74T284 91T320 135T344 198T353 271V415Q343 418 323 422T287 426Q249 426 225 413T185 377T164 322T158 252Q158 217 160 185T170 128T195 89T238 74Q263 74 284 91ZM87 592L275 779L462 592L419 538L408
545Q396 552 376 565T329 598T275 642Q246 617 220 598T173 566T142 545L130 538L87 592Z" />
<glyph unicode="&#xe3;" glyph-name="atilde" horiz-adv-x="536" d="M467 241Q467 181 474 141T491 75Q502 45 515 28L426 -8Q413 5 402 23Q393 39 385 61T375 115Q358 55 321 25T219 -6Q172 -6 138 11T80 61T46 140T35 242Q35 299 52 347T101 431T177 486T274
506Q304 506 336 502T397 492T444 483T467 477V241ZM263 74T284 91T320 135T344 198T353 271V415Q343 418 323 422T287 426Q249 426 225 413T185 377T164 322T158 252Q158 217 160 185T170 128T195 89T238 74Q263 74 284 91ZM106 663Q117 669 129 674Q140 679 154
682T185 686Q222 686 261 676T338 666Q355 666 369 668T395 673Q407 676 418 680V606Q407 599 395 594Q384 589 370 586T338 583Q301 583 262 593T185 603Q168 603 154 601T129 596Q117 592 106 589V663Z" />
<glyph unicode="&#xe4;" glyph-name="adieresis" horiz-adv-x="536" d="M467 241Q467 181 474 141T491 75Q502 45 515 28L426 -8Q413 5 402 23Q393 39 385 61T375 115Q358 55 321 25T219 -6Q172 -6 138 11T80 61T46 140T35 242Q35 299 52 347T101 431T177 486T274
506Q304 506 336 502T397 492T444 483T467 477V241ZM263 74T284 91T320 135T344 198T353 271V415Q343 418 323 422T287 426Q249 426 225 413T185 377T164 322T158 252Q158 217 160 185T170 128T195 89T238 74Q263 74 284 91ZM229 624T213 606T165 587Q136 587 121
605T105 649Q105 677 121 695T168 714Q197 714 213 696T229 651Q229 624 213 606ZM429 624T413 606T365 587Q336 587 320 605T304 649Q304 677 320 695T368 714Q397 714 413 696T429 651Q429 624 413 606Z" />
<glyph unicode="&#xe5;" glyph-name="aring" horiz-adv-x="536" d="M467 241Q467 181 474 141T491 75Q502 45 515 28L426 -8Q413 5 402 23Q393 39 385 61T375 115Q358 55 321 25T219 -6Q172 -6 138 11T80 61T46 140T35 242Q35 299 52 347T101 431T177 486T274
506Q304 506 336 502T397 492T444 483T467 477V241ZM263 74T284 91T320 135T344 198T353 271V415Q343 418 323 422T287 426Q249 426 225 413T185 377T164 322T158 252Q158 217 160 185T170 128T195 89T238 74Q263 74 284 91ZM168 689T196 717T269 746Q312 746 339
718T367 646Q367 603 339 574T266 545Q223 545 196 574T168 646Q168 689 196 717ZM224 624T235 609T267 594Q288 594 299 608T311 646Q311 669 300 682T267 696Q224 696 224 647Q224 624 235 609Z" />
<glyph unicode="&#xe6;" glyph-name="ae" horiz-adv-x="760" d="M328 506T370 494T438 471Q495 510 573 510Q618 510 649 499T701 469T730 424T740 368Q740 332 720 300T663 243T573 204T453 188Q456 165 462 145T481 109T514 84T564 75Q586 75 611 80T657 92Q682
100 706 110L736 39Q710 26 680 16Q654 7 620 0T548 -7Q479 -7 434 17T364 86Q345 40 310 17T219 -6Q172 -6 138 11T80 61T46 140T35 242Q35 299 52 347T101 431T177 486T274 506Q328 506 370 494ZM272 74T298 100T338 168Q335 184 334 201T333 237Q333 288 343
329T374 403Q356 413 335 419T287 426Q249 426 225 413T185 377T164 322T158 252Q158 217 160 185T170 128T195 89T238 74Q272 74 298 100ZM532 432T510 417T475 377T457 322T450 260Q498 262 531 272T586 298T616 332T626 368Q626 397 609 414T565 432Q532 432
510 417Z" />
<glyph unicode="&#xe7;" glyph-name="ccedilla" horiz-adv-x="410" d="M335 381Q320 398 305 410T263 422Q248 422 230 418T195 396T169 344T158 252Q158 193 168 159T195 105T231 81T268 75Q282 75 297 77T326 83T350 90T366 95L394 23Q389 21 361 10T284 -6L275
-47Q314 -50 339 -69T365 -126Q365 -153 355 -171T327 -199T289 -214T247 -218Q223 -218 201 -213T161 -201L177 -147Q188 -151 206 -155T241 -160Q268 -160 279 -152T291 -129Q291 -117 282 -109T260 -96T230 -88T199 -85L219 -5Q170 0 136 19T79 70T46 144T35
237Q35 303 52 354T101 439T174 492T264 510Q311 510 343 492T399 442L335 381Z" />
<glyph unicode="&#xe8;" glyph-name="egrave" horiz-adv-x="473" d="M35 304T53 355T104 440T181 492T276 510Q321 510 352 499T404 469T433 424T443 368Q443 332 423 300T366 243T275 204T156 188Q159 165 165 145T184 109T217 84T267 75Q289 75 314 80T360 92Q385
100 409 110L439 39Q413 26 383 16Q357 7 323 0T251 -7Q193 -7 152 10T85 60T47 137T35 237Q35 304 53 355ZM234 432T213 417T178 377T160 322T153 260Q201 262 234 272T289 298T319 332T329 368Q329 397 312 414T267 432Q234 432 213 417ZM257 538Q223 560 188
586Q158 609 123 640T59 708L135 779L305 590L257 538Z" />
<glyph unicode="&#xe9;" glyph-name="eacute" horiz-adv-x="473" d="M35 304T53 355T104 440T181 492T276 510Q321 510 352 499T404 469T433 424T443 368Q443 332 423 300T366 243T275 204T156 188Q159 165 165 145T184 109T217 84T267 75Q289 75 314 80T360 92Q385
100 409 110L439 39Q413 26 383 16Q357 7 323 0T251 -7Q193 -7 152 10T85 60T47 137T35 237Q35 304 53 355ZM234 432T213 417T178 377T160 322T153 260Q201 262 234 272T289 298T319 332T329 368Q329 397 312 414T267 432Q234 432 213 417ZM200 590L370 779L446
708Q416 671 382 640T318 586Q284 560 249 538L200 590Z" />
<glyph unicode="&#xea;" glyph-name="ecircumflex" horiz-adv-x="473" d="M35 304T53 355T104 440T181 492T276 510Q321 510 352 499T404 469T433 424T443 368Q443 332 423 300T366 243T275 204T156 188Q159 165 165 145T184 109T217 84T267 75Q289 75 314 80T360
92Q385 100 409 110L439 39Q413 26 383 16Q357 7 323 0T251 -7Q193 -7 152 10T85 60T47 137T35 237Q35 304 53 355ZM234 432T213 417T178 377T160 322T153 260Q201 262 234 272T289 298T319 332T329 368Q329 397 312 414T267 432Q234 432 213 417ZM76 592L264 779L451
592L408 538L397 545Q385 552 365 565T318 598T264 642Q235 617 209 598T162 566T131 545L119 538L76 592Z" />
<glyph unicode="&#xeb;" glyph-name="edieresis" horiz-adv-x="473" d="M35 304T53 355T104 440T181 492T276 510Q321 510 352 499T404 469T433 424T443 368Q443 332 423 300T366 243T275 204T156 188Q159 165 165 145T184 109T217 84T267 75Q289 75 314 80T360
92Q385 100 409 110L439 39Q413 26 383 16Q357 7 323 0T251 -7Q193 -7 152 10T85 60T47 137T35 237Q35 304 53 355ZM234 432T213 417T178 377T160 322T153 260Q201 262 234 272T289 298T319 332T329 368Q329 397 312 414T267 432Q234 432 213 417ZM218 624T202
606T154 587Q125 587 110 605T94 649Q94 677 110 695T157 714Q186 714 202 696T218 651Q218 624 202 606ZM418 624T402 606T354 587Q325 587 309 605T293 649Q293 677 309 695T357 714Q386 714 402 696T418 651Q418 624 402 606Z" />
<glyph unicode="&#xec;" glyph-name="igrave" horiz-adv-x="245" d="M106 -4T78 27T50 109V498H164V119Q164 96 171 88T192 80Q196 80 200 80T209 81Q213 81 218 82L230 10Q223 6 212 3Q203 0 190 -2T159 -4Q106 -4 78 27ZM106 539Q79 562 50 589Q25 612 -5 644T-65
713L15 780L154 590L106 539Z" />
<glyph unicode="&#xed;" glyph-name="iacute" horiz-adv-x="245" d="M106 -4T78 27T50 109V498H164V119Q164 96 171 88T192 80Q196 80 200 80T209 81Q213 81 218 82L230 10Q223 6 212 3Q203 0 190 -2T159 -4Q106 -4 78 27ZM56 590L196 780L275 713Q245 676 215
644T160 589Q131 562 104 539L56 590Z" />
<glyph unicode="&#xee;" glyph-name="icircumflex" horiz-adv-x="245" d="M106 -4T78 27T50 109V498H164V119Q164 96 171 88T192 80Q196 80 200 80T209 81Q213 81 218 82L230 10Q223 6 212 3Q203 0 190 -2T159 -4Q106 -4 78 27ZM53 592T24 571T-18 539L-64 589L106
781L277 589L230 539Q219 547 189 570T106 641Q53 592 24 571Z" />
<glyph unicode="&#xef;" glyph-name="idieresis" horiz-adv-x="245" d="M106 -4T78 27T50 109V498H164V119Q164 96 171 88T192 80Q196 80 200 80T209 81Q213 81 218 82L230 10Q223 6 212 3Q203 0 190 -2T159 -4Q106 -4 78 27ZM83 620T68 602T22 584Q-5 584 -20
601T-35 643Q-35 670 -20 687T25 705Q53 705 68 689T83 646Q83 620 68 602ZM249 620T234 602T188 584Q160 584 145 601T130 643Q130 670 145 687T191 705Q219 705 234 689T249 646Q249 620 234 602Z" />
<glyph unicode="&#xf0;" glyph-name="eth" horiz-adv-x="517" d="M482 194T468 146T426 64T354 10T254 -10Q197 -10 156 8T87 60T48 139T35 239Q35 291 49 335T90 413T158 465T253 484Q283 484 307 476T348 455Q337 483 325 507T300 554L188 523L168 601L243 617L189
659L247 729Q303 694 350 643L472 675L492 598L398 578Q440 510 461 427T482 250Q482 194 468 146ZM224 405T206 393T177 360T162 310T158 248Q158 214 162 183T179 127T211 89T264 74Q293 74 311 87T340 124T355 177T359 240Q359 274 355 304T338 356T306 392T253
405Q224 405 206 393Z" />
<glyph unicode="&#xf1;" glyph-name="ntilde" horiz-adv-x="549" d="M375 0V323Q375 365 360 390T309 416Q286 416 265 405T226 371T199 318T188 247V0H74V252Q74 312 66 352T49 418Q38 447 25 465L115 501Q125 490 135 474Q143 460 151 440T164 393Q190 453 239
479T342 506Q419 506 453 460T488 334V0H375ZM157 663Q168 669 180 674Q191 679 205 682T236 686Q273 686 312 676T389 666Q406 666 420 668T446 673Q458 676 469 680V606Q458 599 446 594Q435 589 421 586T389 583Q352 583 313 593T236 603Q219 603 205 601T180
596Q168 592 157 589V663Z" />
<glyph unicode="&#xf2;" glyph-name="ograve" horiz-adv-x="517" d="M378 510T430 442T482 255Q482 199 468 151T426 67T354 11T254 -10Q197 -10 156 7T87 58T48 138T35 244Q35 301 49 349T91 433T163 489T263 510Q378 510 430 442ZM224 426T206 413T177 377T162
322T158 254Q158 217 162 184T179 127T211 88T264 74Q293 74 311 87T340 123T355 178T359 245Q359 282 355 315T338 373T306 412T253 426Q224 426 206 413ZM257 538Q223 560 188 586Q158 609 123 640T59 708L135 779L305 590L257 538Z" />
<glyph unicode="&#xf3;" glyph-name="oacute" horiz-adv-x="517" d="M378 510T430 442T482 255Q482 199 468 151T426 67T354 11T254 -10Q197 -10 156 7T87 58T48 138T35 244Q35 301 49 349T91 433T163 489T263 510Q378 510 430 442ZM224 426T206 413T177 377T162
322T158 254Q158 217 162 184T179 127T211 88T264 74Q293 74 311 87T340 123T355 178T359 245Q359 282 355 315T338 373T306 412T253 426Q224 426 206 413ZM200 590L370 779L446 708Q416 671 382 640T318 586Q284 560 249 538L200 590Z" />
<glyph unicode="&#xf4;" glyph-name="ocircumflex" horiz-adv-x="517" d="M378 510T430 442T482 255Q482 199 468 151T426 67T354 11T254 -10Q197 -10 156 7T87 58T48 138T35 244Q35 301 49 349T91 433T163 489T263 510Q378 510 430 442ZM224 426T206 413T177
377T162 322T158 254Q158 217 162 184T179 127T211 88T264 74Q293 74 311 87T340 123T355 178T359 245Q359 282 355 315T338 373T306 412T253 426Q224 426 206 413ZM76 592L264 779L451 592L408 538L397 545Q385 552 365 565T318 598T264 642Q235 617 209 598T162
566T131 545L119 538L76 592Z" />
<glyph unicode="&#xf5;" glyph-name="otilde" horiz-adv-x="517" d="M378 510T430 442T482 255Q482 199 468 151T426 67T354 11T254 -10Q197 -10 156 7T87 58T48 138T35 244Q35 301 49 349T91 433T163 489T263 510Q378 510 430 442ZM224 426T206 413T177 377T162
322T158 254Q158 217 162 184T179 127T211 88T264 74Q293 74 311 87T340 123T355 178T359 245Q359 282 355 315T338 373T306 412T253 426Q224 426 206 413ZM95 663Q106 669 118 674Q129 679 143 682T174 686Q211 686 250 676T327 666Q344 666 358 668T384 673Q396
676 407 680V606Q396 599 384 594Q373 589 359 586T327 583Q290 583 251 593T174 603Q157 603 143 601T118 596Q106 592 95 589V663Z" />
<glyph unicode="&#xf6;" glyph-name="odieresis" horiz-adv-x="517" d="M378 510T430 442T482 255Q482 199 468 151T426 67T354 11T254 -10Q197 -10 156 7T87 58T48 138T35 244Q35 301 49 349T91 433T163 489T263 510Q378 510 430 442ZM224 426T206 413T177 377T162
322T158 254Q158 217 162 184T179 127T211 88T264 74Q293 74 311 87T340 123T355 178T359 245Q359 282 355 315T338 373T306 412T253 426Q224 426 206 413ZM218 624T202 606T154 587Q125 587 110 605T94 649Q94 677 110 695T157 714Q186 714 202 696T218 651Q218
624 202 606ZM418 624T402 606T354 587Q325 587 309 605T293 649Q293 677 309 695T357 714Q386 714 402 696T418 651Q418 624 402 606Z" />
<glyph unicode="&#xf7;" glyph-name="divide" horiz-adv-x="511" d="M313 439T298 421T252 403Q224 403 209 420T194 462Q194 489 209 507T255 525Q283 525 298 508T313 465Q313 439 298 421ZM60 346H451V257H60V346ZM313 110T298 92T252 74Q224 74 209 91T194
133Q194 160 209 178T255 196Q283 196 298 179T313 136Q313 110 298 92Z" />
<glyph unicode="&#xf8;" glyph-name="oslash" horiz-adv-x="517" d="M300 510T334 502L359 553L436 518L409 463Q447 430 464 378T482 255Q482 199 468 151T426 67T354 11T254 -10Q217 -10 183 -2L158 -54L80 -19L107 37Q70 69 53 121T35 244Q35 301 49 349T91
433T163 489T263 510Q300 510 334 502ZM224 426T206 413T177 377T162 322T158 254Q158 228 160 204T167 160L293 418Q275 426 253 426Q224 426 206 413ZM359 300T349 340L224 81Q239 74 264 74Q293 74 311 87T340 123T355 178T359 245Q359 300 349 340Z" />
<glyph unicode="&#xf9;" glyph-name="ugrave" horiz-adv-x="549" d="M361 498H475V241Q475 181 482 141T499 75Q510 45 523 28L434 -8Q422 3 412 20Q404 34 396 54T384 103Q357 44 308 19T206 -6Q127 -6 94 40T60 166V498H174V168Q174 126 189 102T240 78Q262
78 283 90T322 126T350 181T361 254V498ZM271 538Q237 560 202 586Q172 609 137 640T73 708L149 779L319 590L271 538Z" />
<glyph unicode="&#xfa;" glyph-name="uacute" horiz-adv-x="549" d="M361 498H475V241Q475 181 482 141T499 75Q510 45 523 28L434 -8Q422 3 412 20Q404 34 396 54T384 103Q357 44 308 19T206 -6Q127 -6 94 40T60 166V498H174V168Q174 126 189 102T240 78Q262
78 283 90T322 126T350 181T361 254V498ZM214 590L384 779L460 708Q430 671 396 640T332 586Q298 560 263 538L214 590Z" />
<glyph unicode="&#xfb;" glyph-name="ucircumflex" horiz-adv-x="549" d="M361 498H475V241Q475 181 482 141T499 75Q510 45 523 28L434 -8Q422 3 412 20Q404 34 396 54T384 103Q357 44 308 19T206 -6Q127 -6 94 40T60 166V498H174V168Q174 126 189 102T240 78Q262
78 283 90T322 126T350 181T361 254V498ZM91 592L279 779L466 592L423 538L412 545Q400 552 380 565T333 598T279 642Q250 617 224 598T177 566T146 545L134 538L91 592Z" />
<glyph unicode="&#xfc;" glyph-name="udieresis" horiz-adv-x="549" d="M361 498H475V241Q475 181 482 141T499 75Q510 45 523 28L434 -8Q422 3 412 20Q404 34 396 54T384 103Q357 44 308 19T206 -6Q127 -6 94 40T60 166V498H174V168Q174 126 189 102T240 78Q262
78 283 90T322 126T350 181T361 254V498ZM233 624T217 606T169 587Q140 587 125 605T109 649Q109 677 125 695T172 714Q201 714 217 696T233 651Q233 624 217 606ZM433 624T417 606T369 587Q340 587 324 605T308 649Q308 677 324 695T372 714Q401 714 417 696T433
651Q433 624 417 606Z" />
<glyph unicode="&#xfd;" glyph-name="yacute" horiz-adv-x="538" d="M472 202Q472 172 476 147T486 98T497 48T502 -7Q502 -113 448 -165T302 -217Q272 -217 242 -212T187 -199T143 -185T119 -175L147 -88Q161 -94 178 -100T214 -113T253 -123T292 -127Q348 -127
373 -94T398 -7Q398 41 378 92Q350 39 304 17T206 -6Q127 -6 94 40T60 166V498H174V169Q174 127 189 103T240 79Q259 79 280 90T319 120T348 167T360 227V498H477L472 202ZM211 590L381 779L457 708Q427 671 393 640T329 586Q295 560 260 538L211 590Z" />
<glyph unicode="&#xfe;" glyph-name="thorn" horiz-adv-x="532" d="M179 437Q218 506 313 506Q360 506 394 489T452 439T486 360T497 258Q497 201 480 153T431 69T355 14T258 -6Q238 -6 219 -4T179 0V-201L65 -221V705L179 725V437ZM270 425T249 409T213 367T188
306T179 235V84Q188 82 208 78T245 74Q282 74 307 87T347 123T368 178T374 248Q374 283 372 315T362 371T337 410T294 425Q270 425 249 409Z" />
<glyph unicode="&#xff;" glyph-name="ydieresis" horiz-adv-x="538" d="M472 202Q472 172 476 147T486 98T497 48T502 -7Q502 -113 448 -165T302 -217Q272 -217 242 -212T187 -199T143 -185T119 -175L147 -88Q161 -94 178 -100T214 -113T253 -123T292 -127Q348
-127 373 -94T398 -7Q398 41 378 92Q350 39 304 17T206 -6Q127 -6 94 40T60 166V498H174V169Q174 127 189 103T240 79Q259 79 280 90T319 120T348 167T360 227V498H477L472 202ZM229 624T213 606T165 587Q136 587 121 605T105 649Q105 677 121 695T168 714Q197
714 213 696T229 651Q229 624 213 606ZM429 624T413 606T365 587Q336 587 320 605T304 649Q304 677 320 695T368 714Q397 714 413 696T429 651Q429 624 413 606Z" />
<glyph unicode="&#x2013;" glyph-name="endash" horiz-adv-x="500" d="M0 361H500V278H0V361Z" />
<glyph unicode="&#x2014;" glyph-name="emdash" horiz-adv-x="698" d="M0 361H698V278H0V361Z" />
<glyph unicode="&#x2018;" glyph-name="quoteleft" horiz-adv-x="230" d="M151 451T137 443T87 434Q52 434 36 455T20 508Q20 548 31 581T62 642T105 688T157 722L200 664Q160 635 147 606T133 550Q133 521 142 496T152 452Q151 451 137 443Z" />
<glyph unicode="&#x2019;" glyph-name="quoteright" horiz-adv-x="230" d="M78 707T93 715T143 724Q178 724 194 703T210 650Q210 609 199 576T168 516T125 469T73 436L30 494Q69 523 82 552T96 608Q96 637 87 662T77 706Q78 707 93 715Z" />
<glyph unicode="&#x201a;" glyph-name="quotesinglbase" horiz-adv-x="230" d="M78 124T93 132T143 141Q178 141 194 120T210 67Q210 26 199 -7T168 -67T125 -114T73 -147L30 -89Q69 -60 82 -31T96 25Q96 54 87 79T77 123Q78 124 93 132Z" />
<glyph unicode="&#x201c;" glyph-name="quotedblleft" d="M151 451T137 443T87 434Q52 434 36 455T20 508Q20 548 31 581T62 642T105 688T157 722L200 664Q160 635 147 606T133 550Q133 521 142 496T152 452Q151 451 137 443ZM351 451T337 443T287 434Q252 434
236 455T219 508Q219 548 230 581T261 642T305 688T357 722L399 664Q360 635 347 606T333 550Q333 521 342 496T352 452Q351 451 337 443Z" />
<glyph unicode="&#x201d;" glyph-name="quotedblright" d="M78 710T93 718T143 727Q178 727 194 706T210 653Q210 612 199 579T168 519T125 472T73 439L30 497Q69 526 82 555T96 611Q96 640 87 665T77 709Q78 710 93 718ZM278 710T292 718T342 727Q377 727 393
706T410 653Q410 612 399 579T368 519T324 472T272 439L230 497Q269 526 282 555T296 611Q296 640 287 665T277 709Q278 710 292 718Z" />
<glyph unicode="&#x201e;" glyph-name="quotedblbase" d="M78 124T93 132T143 141Q178 141 194 120T210 67Q210 26 199 -7T168 -67T125 -114T73 -147L30 -89Q69 -60 82 -31T96 25Q96 54 87 79T77 123Q78 124 93 132ZM278 124T292 132T342 141Q377 141 393 120T410
67Q410 26 399 -7T368 -67T324 -114T272 -147L230 -89Q269 -60 282 -31T296 25Q296 54 287 79T277 123Q278 124 292 132Z" />
<glyph unicode="&#x2022;" glyph-name="bullet" horiz-adv-x="314" d="M50 365T79 394T157 423Q206 423 235 394T264 316Q264 267 235 238T157 209Q108 209 79 238T50 316Q50 365 79 394Z" />
<glyph unicode="&#x2039;" glyph-name="guilsinglleft" horiz-adv-x="347" d="M312 408L182 245L312 82L265 28Q225 63 186 100Q153 132 116 170T50 245Q79 282 116 320T186 390Q225 427 265 462L312 408Z" />
<glyph unicode="&#x203a;" glyph-name="guilsinglright" horiz-adv-x="347" d="M83 462Q122 427 161 390Q194 358 231 320T297 245Q268 208 231 170T161 100Q122 63 83 28L35 82L165 245L35 408L83 462Z" />
</font>
</defs>
</svg>
