<?xml version="1.0" standalone="no"?>
<!DOCTYPE svg PUBLIC "-//W3C//DTD SVG 1.1//EN" "http://www.w3.org/Graphics/SVG/1.1/DTD/svg11.dtd">
<svg xmlns="http://www.w3.org/2000/svg">
<defs >
<font id="Amaranth" horiz-adv-x="441" ><font-face
    font-family="Amaranth"
    units-per-em="1000"
    panose-1="2 0 5 0 0 0 0 2 0 4"
    ascent="976"
    descent="-236"
    alphabetic="0" />
<glyph unicode=" " glyph-name="space" horiz-adv-x="255" />
<glyph unicode="!" glyph-name="exclam" horiz-adv-x="340" d="M209 169T231 144T254 81Q254 43 232 17T165 -10Q123 -10 100 16T77 77Q77 116 100 142T167 169Q209 169 231 144ZM97 677H271L242 220H97V677Z" />
<glyph unicode="&quot;" glyph-name="quotedbl" horiz-adv-x="410" d="M175 677L164 420H53L42 677H175ZM368 677L357 420H246L235 677H368Z" />
<glyph unicode="#" glyph-name="numbersign" horiz-adv-x="603" d="M485 593L469 472H561L548 370H456L439 237H538L525 135H426L409 0H306L324 135H223L206 0H103L121 135H32L45 237H134L151 370H55L68 472H164L179 593H282L266 472H367L382 593H485ZM236 237H337L354
370H253L236 237Z" />
<glyph unicode="$" glyph-name="dollar" horiz-adv-x="559" d="M213 16Q156 25 113 44T42 81L96 198Q105 192 124 181T167 158T216 139T263 130Q301 130 318 146T335 185Q335 214 311 228T242 259Q156 291 111 336T66 456Q66 486 77 511T108 556T154 591T213 612V694H340V614Q393
606 435 589T504 555L448 447Q434 454 417 463T379 481T338 494T297 500Q268 500 253 491T237 461Q237 437 264 420T354 378Q433 347 469 304T506 193Q506 163 495 134T463 81T411 40T340 15V-83H213V16Z" />
<glyph unicode="%" glyph-name="percent" horiz-adv-x="944" d="M297 595T339 546T382 416Q382 377 371 343T337 284T281 244T204 229Q118 229 75 278T32 408Q32 447 44 481T78 540T134 580T210 595Q297 595 339 546ZM183 512T177 487T170 416Q170 369 177 341T210
312Q231 312 237 338T244 410Q244 457 237 484T204 512Q183 512 177 487ZM547 594H680L398 -8H266L547 594ZM827 358T869 309T912 179Q912 140 901 106T867 47T811 7T734 -8Q648 -8 605 41T562 171Q562 210 574 244T608 303T664 343T740 358Q827 358 869 309ZM713
275T707 250T700 179Q700 132 707 104T740 75Q762 75 768 101T774 173Q774 220 767 247T734 275Q713 275 707 250Z" />
<glyph unicode="&amp;" glyph-name="ampersand" horiz-adv-x="603" d="M402 442Q387 456 367 471T323 487Q303 487 294 477T285 448Q285 402 322 356T424 254Q442 288 453 318L569 272Q558 249 547 224T519 173L605 99L526 -5L436 69Q398 35 350 15T239 -6Q194
-6 157 7T92 44T50 100T35 172Q35 206 44 235T70 287T105 329T145 360Q121 405 121 448Q121 481 132 509T167 557T224 590T303 602Q353 602 397 588T483 530L402 442ZM306 176T274 205T215 264Q204 250 197 232T190 189Q190 158 210 138T269 118Q289 118 307 125T342
146Q306 176 274 205Z" />
<glyph unicode="&apos;" glyph-name="quotesingle" horiz-adv-x="233" d="M183 677L172 420H61L50 677H183Z" />
<glyph unicode="(" glyph-name="parenleft" horiz-adv-x="385" d="M62 366T84 442T140 575T209 669T273 726L356 634Q335 612 311 579T267 500T234 397T221 268Q221 196 234 138T267 35T310 -43T356 -99L273 -191Q246 -172 210 -135T140 -40T85 94T62 269Q62 366 84 442Z" />
<glyph unicode=")" glyph-name="parenright" horiz-adv-x="385" d="M330 171T308 94T252 -40T183 -134T119 -191L36 -99Q58 -77 82 -44T126 35T159 138T172 268Q172 339 159 396T126 499T81 578T36 634L119 726Q146 707 182 670T252 575T307 442T330 269Q330 171 308 94Z" />
<glyph unicode="*" glyph-name="asterisk" horiz-adv-x="477" d="M305 677L292 570L392 616L435 491L325 467L401 385L292 306L238 400L185 306L76 385L152 467L42 491L85 616L184 570L172 677H305Z" />
<glyph unicode="+" glyph-name="plus" horiz-adv-x="505" d="M52 358H191V498H313V358H453V242H313V96H191V242H52V358Z" />
<glyph unicode="," glyph-name="comma" horiz-adv-x="299" d="M74 118T79 121T95 129T123 137T163 141Q209 141 227 114T246 50Q246 -14 209 -73T90 -175L32 -96Q68 -70 80 -41T93 17Q93 48 84 74T73 117Q74 118 79 121Z" />
<glyph unicode="-" glyph-name="hyphen" horiz-adv-x="375" d="M42 372H333V261H42V372Z" />
<glyph unicode="." glyph-name="period" horiz-adv-x="282" d="M184 169T206 144T229 81Q229 43 207 17T140 -10Q98 -10 75 16T52 77Q52 116 75 142T142 169Q184 169 206 144Z" />
<glyph unicode="/" glyph-name="slash" horiz-adv-x="447" d="M300 729H465L147 -126H-18L300 729Z" />
<glyph unicode="0" glyph-name="zero" horiz-adv-x="594" d="M428 645T492 561T556 325Q556 250 539 189T489 83T406 15T291 -9Q166 -9 102 73T37 309Q37 384 54 446T105 552T189 620T304 645Q428 645 492 561ZM245 534T226 481T207 320Q207 270 211 230T225 161T255
117T303 101Q348 101 366 154T385 313Q385 363 381 403T367 473T338 518T291 534Q245 534 226 481Z" />
<glyph unicode="1" glyph-name="one" horiz-adv-x="421" d="M329 640V0H171V468Q145 448 116 432T55 405L0 507Q51 529 104 558T207 640H329Z" />
<glyph unicode="2" glyph-name="two" horiz-adv-x="505" d="M28 582Q49 592 76 603T133 623T194 639T256 645Q298 645 334 635T397 603T439 547T455 464Q455 399 421 336T315 198L255 135H472V0H27L9 42Q25 64 43 89T80 140T117 191T151 239Q188 279 214 309T256
365T279 410T286 450Q286 476 271 494T227 513Q200 513 167 500T86 465L28 582Z" />
<glyph unicode="3" glyph-name="three" horiz-adv-x="511" d="M296 645T331 635T391 606T431 559T445 495Q445 445 420 411T356 358Q414 341 444 298T474 202Q474 164 462 127T422 59T350 10T239 -9Q216 -9 189 -4T134 9T78 28T27 49L79 170Q93 163 111 155T148
139T187 127T223 122Q255 122 280 144T305 208Q305 239 283 257T233 275Q222 275 208 273T181 269T158 264T146 261L100 373Q133 383 164 393T220 415T260 442T275 475Q275 492 264 502T233 513Q198 513 167 500T97 467L39 585Q90 611 144 628T254 645Q296 645
331 635Z" />
<glyph unicode="4" glyph-name="four" horiz-adv-x="528" d="M271 152H12V240L179 640H337L188 283H271V423L429 450V283H520L497 152H429V0H271V152Z" />
<glyph unicode="5" glyph-name="five" horiz-adv-x="523" d="M61 311L97 640H458L434 505H233L219 402Q232 405 249 408T289 411Q339 411 375 394T436 348T471 282T483 204Q483 166 471 128T432 60T361 10T253 -9Q230 -9 202 -4T146 9T89 27T37 49L89 170Q104
163 122 155T159 139T197 127T234 122Q268 122 290 144T312 211Q312 245 289 262T228 279Q192 279 168 272T131 259L61 311Z" />
<glyph unicode="6" glyph-name="six" horiz-adv-x="547" d="M428 504Q404 512 376 518T322 524Q266 524 241 481T209 369Q230 386 259 399T327 413Q368 413 403 401T464 363T505 298T520 205Q520 159 504 120T456 52T380 7T279 -9Q216 -9 171 15T96 83T52 187T37
318Q37 382 55 441T109 545T199 617T327 644Q364 644 404 636T470 615L428 504ZM262 304T241 292T208 269Q212 177 231 138T289 99Q308 99 321 107T342 130T354 164T358 204Q358 257 339 280T285 304Q262 304 241 292Z" />
<glyph unicode="7" glyph-name="seven" horiz-adv-x="469" d="M442 547L247 0H79L258 502H25L1 637H442V547Z" />
<glyph unicode="8" glyph-name="eight" horiz-adv-x="555" d="M277 -9Q234 -9 192 1T117 33T63 88T42 167Q42 219 73 261T166 340Q121 363 92 398T62 483Q62 525 82 556T135 606T206 635T282 645Q320 645 357 636T423 607T470 557T488 487Q488 441 462 407T390
345Q452 312 482 267T512 173Q512 127 492 93T440 36T365 2T277 -9ZM210 161Q210 130 230 113T282 95Q310 95 326 114T342 159Q342 188 324 214T278 264Q210 219 210 161ZM326 492Q326 520 310 530T276 541Q259 541 241 531T223 492Q223 467 237 446T278 408Q326
441 326 492Z" />
<glyph unicode="9" glyph-name="nine" horiz-adv-x="546" d="M119 132Q143 124 171 118T226 111Q254 111 273 122T306 155T327 204T338 268Q318 252 288 239T220 225Q179 225 144 237T83 275T42 340T27 433Q27 479 44 518T92 585T167 628T268 644Q331 644 376
620T451 553T495 451T510 320Q510 256 492 197T438 92T348 19T220 -9Q183 -9 143 -1T77 20L119 132ZM285 334T306 346T339 368Q335 460 315 498T258 536Q240 536 227 528T205 506T193 474T189 434Q189 382 208 358T262 334Q285 334 306 346Z" />
<glyph unicode=":" glyph-name="colon" horiz-adv-x="302" d="M199 169T221 144T244 81Q244 43 222 17T155 -10Q113 -10 90 16T67 77Q67 116 90 142T157 169Q199 169 221 144ZM199 512T221 487T244 424Q244 385 222 359T155 332Q113 332 90 358T67 420Q67 458
90 485T157 512Q199 512 221 487Z" />
<glyph unicode=";" glyph-name="semicolon" horiz-adv-x="309" d="M190 512T213 487T236 424Q236 385 213 359T146 332Q104 332 82 358T59 420Q59 458 81 485T148 512Q190 512 213 487ZM72 118T77 121T93 129T121 137T161 141Q207 141 225 114T244 50Q244 -14
207 -73T88 -175L30 -96Q66 -70 78 -41T91 17Q91 48 82 74T71 117Q72 118 77 121Z" />
<glyph unicode="&lt;" glyph-name="less" horiz-adv-x="448" d="M363 75L22 241V360L361 525L414 402L263 333Q251 327 238 322T214 313T195 305T183 301Q197 296 220 287T263 269L416 197L363 75Z" />
<glyph unicode="=" glyph-name="equal" horiz-adv-x="495" d="M62 445H433V329H62V445ZM62 271H433V155H62V271Z" />
<glyph unicode="&gt;" glyph-name="greater" horiz-adv-x="448" d="M32 197L185 269Q204 277 226 286T264 301Q261 302 253 304T234 311T210 321T185 333L34 402L87 525L426 360V241L85 75L32 197Z" />
<glyph unicode="?" glyph-name="question" horiz-adv-x="451" d="M320 687T371 650T422 538Q422 509 412 481T387 427T352 376T314 329Q286 294 266 265T233 198L110 231Q110 281 131 322T177 399T224 465T245 523Q245 542 232 558T193 575Q180 575 169 573T145
567T116 555T78 537L29 637Q72 657 119 672T232 687Q320 687 371 650ZM216 169T238 144T261 81Q261 43 239 17T172 -10Q130 -10 108 16T85 77Q85 116 107 142T174 169Q216 169 238 144Z" />
<glyph unicode="@" glyph-name="at" horiz-adv-x="957" d="M670 217Q670 160 681 134T715 108Q733 108 747 124T772 165T789 220T795 278Q795 346 775 397T717 483T629 535T516 552Q443 552 379 531T267 466T191 357T163 203Q163 146 176 95T221 4T304 -59T431
-82Q461 -82 492 -77T550 -66T598 -54T626 -44L663 -141Q656 -145 633 -154T577 -172T504 -188T424 -195Q354 -195 286 -176T164 -112T77 9T44 199Q44 312 82 399T186 545T340 634T527 665Q608 665 678 640T801 567T884 447T914 284Q914 225 899 172T856 80T792
17T713 -6Q663 -6 623 16T561 95Q542 43 511 19T428 -6Q382 -6 348 10T292 57T259 130T248 226Q248 280 265 326T313 405T387 456T483 475Q512 475 544 471T603 462T648 453T670 449V217ZM467 103T479 115T501 147T515 193T521 250V358Q515 360 504 363T481 366Q439
366 423 330T406 237Q406 210 407 186T413 144T427 114T452 103Q467 103 479 115Z" />
<glyph unicode="A" glyph-name="A" horiz-adv-x="649" d="M256 677H403L651 0H484L434 163H215L163 0H-1L256 677ZM397 285Q387 314 377 345T357 407T339 463T325 508Q319 489 311 463T294 406T274 345T253 285H397Z" />
<glyph unicode="B" glyph-name="B" horiz-adv-x="574" d="M62 677Q71 677 98 677T159 678T223 678T270 679Q397 679 461 632T526 503Q526 452 494 413T398 353Q473 331 509 289T546 189Q546 -1 259 -1Q245 -1 217 -1T157 -1T100 0T62 0V677ZM227 108H276Q296 108
313 112T344 125T364 151T372 193Q372 212 367 229T350 260T319 282T271 290Q257 290 246 290T227 288V108ZM227 393H273Q304 393 328 412T353 481Q353 523 334 546T269 570Q256 570 245 570T227 569V393Z" />
<glyph unicode="C" glyph-name="C" horiz-adv-x="549" d="M447 512Q419 546 393 557T341 569Q276 569 247 509T217 341Q217 290 223 248T246 175T288 128T355 111Q390 111 423 119T485 139L521 27Q490 14 443 4T335 -6Q181 -6 110 81T39 330Q39 408 57 473T113
585T207 659T341 686Q381 686 411 679T465 661T505 634T537 603L447 512Z" />
<glyph unicode="D" glyph-name="D" horiz-adv-x="647" d="M62 677Q69 677 94 677T153 678T221 678T285 679Q370 679 431 654T533 582T592 473T611 333Q611 255 592 193T532 88T429 21T282 -2Q253 -2 229 -2T180 -1T127 -1T62 0V677ZM261 563T252 563T227 562V115Q240
114 250 114T278 114Q322 114 351 129T399 172T425 240T433 331Q433 563 278 563Q261 563 252 563Z" />
<glyph unicode="E" glyph-name="E" horiz-adv-x="524" d="M62 677H493V556H227V411H448L429 292H227V121H507V0H62V677Z" />
<glyph unicode="F" glyph-name="F" horiz-adv-x="501" d="M62 677H493V557H227V402H450L430 283H227V0H62V677Z" />
<glyph unicode="G" glyph-name="G" horiz-adv-x="611" d="M312 -119Q344 -101 365 -83T400 -43T420 5T426 65V72Q406 34 368 14T278 -7Q219 -7 174 16T98 82T51 188T35 330Q35 407 53 472T110 585T206 659T345 686Q404 686 458 664T549 597L472 503Q443 531 410
550T345 569Q274 569 244 508T213 340Q213 288 219 246T237 173T268 127T313 111Q333 111 350 126T381 164T402 217T410 275V350H568V31Q568 -30 551 -71T507 -141T444 -189T372 -223L312 -119Z" />
<glyph unicode="H" glyph-name="H" horiz-adv-x="688" d="M461 290H227V0H62V677H227V412H461V677H625V0H461V290Z" />
<glyph unicode="I" glyph-name="I" horiz-adv-x="289" d="M62 677H227V0H62V677Z" />
<glyph unicode="J" glyph-name="J" horiz-adv-x="285" d="M222 43Q222 -13 207 -54T165 -126T102 -180T24 -223L-43 -112Q-5 -92 15 -73T45 -34T56 4T58 41V677H222V43Z" />
<glyph unicode="K" glyph-name="K" horiz-adv-x="638" d="M62 677H227V0H62V677ZM576 606T558 555T517 467T470 403T418 356L652 0H468L238 371V383Q282 404 312 432T364 497T399 578T426 677H590Q576 606 558 555Z" />
<glyph unicode="L" glyph-name="L" horiz-adv-x="458" d="M62 677H227V121H465V0H62V677Z" />
<glyph unicode="M" glyph-name="M" horiz-adv-x="860" d="M491 0H366L283 192Q280 200 272 221T253 270T231 327T211 380Q211 354 211 320T211 251T211 185T209 136L204 0H52L92 677H234L390 287Q397 269 408 237T431 166Q442 203 453 235T473 287L629 677H768L808
0H653L647 136Q646 155 646 186T645 251T645 320T646 380Q638 359 629 333T609 281T590 235T576 201L491 0Z" />
<glyph unicode="N" glyph-name="N" horiz-adv-x="689" d="M462 677H627V0H486L293 292Q287 301 277 318T255 353T233 389T215 418Q216 403 217 382T220 338T223 295T224 260L227 0H62V677H197L392 387Q401 373 412 356T434 320T456 286T473 257Q472 273 471 294T469
337T466 381T465 418L462 677Z" />
<glyph unicode="O" glyph-name="O" horiz-adv-x="693" d="M432 686T489 662T583 594T637 487T655 344Q655 266 636 202T577 91T479 20T340 -6Q261 -6 204 16T109 82T55 188T37 330Q37 408 56 473T115 586T213 660T353 686Q432 686 489 662ZM274 569T245 509T215
341Q215 290 221 248T243 176T286 128T354 111Q419 111 448 169T477 334Q477 385 471 428T449 502T406 551T339 569Q274 569 245 509Z" />
<glyph unicode="P" glyph-name="P" horiz-adv-x="544" d="M62 677Q69 677 95 677T154 678T218 678T270 679Q398 679 462 625T526 473Q526 366 454 313T257 259H227V0H62V677ZM227 368H269Q303 368 328 391T353 465Q353 507 333 538T264 570Q251 570 242 570T227 568V368Z" />
<glyph unicode="Q" glyph-name="Q" horiz-adv-x="704" d="M696 -147Q648 -179 599 -196T488 -214Q456 -214 420 -207T346 -185T268 -147T192 -91L221 -2Q232 -4 245 -5T269 -6Q318 -6 357 17T423 83T466 189T481 332Q481 383 475 426T452 501T408 551T340 569Q275
569 244 509T213 344Q213 297 218 265T233 210T259 176T297 155L281 47Q218 51 172 75T96 139T50 229T35 335Q35 411 56 475T118 586T218 659T354 686Q429 686 486 662T582 594T640 486T660 343Q660 257 642 188T590 65T512 -23T414 -77Q442 -91 475 -91Q520 -91
559 -75T642 -37L696 -147Z" />
<glyph unicode="R" glyph-name="R" horiz-adv-x="599" d="M62 677Q71 677 98 677T158 678T222 678T270 679Q398 679 462 630T526 485Q526 421 495 380T411 315Q441 298 464 270T508 203T550 112T598 0H421Q389 70 367 123T326 213T289 268T244 287H227V0H62V677ZM227
390H269Q304 390 328 411T353 479Q353 498 349 514T334 543T307 563T264 571H227V390Z" />
<glyph unicode="S" glyph-name="S" horiz-adv-x="526" d="M267 686Q303 686 336 680T399 665T451 645T492 621L434 511Q422 517 405 526T369 545T329 560T289 566Q254 566 237 552T220 515Q221 498 228 485T249 460T285 435T339 410Q379 393 409 375T458 334T488
282T498 215Q498 169 482 129T434 58T359 11T260 -6Q221 -6 186 1T120 19T65 42T22 66L76 184Q83 179 102 168T145 145T194 124T239 115Q281 115 300 134T320 190Q320 226 296 244T226 281Q182 299 148 319T91 364T55 420T42 492Q42 537 60 572T110 633T181 672T267
686Z" />
<glyph unicode="T" glyph-name="T" horiz-adv-x="507" d="M505 677L484 556H328V0H163V556H2V677H505Z" />
<glyph unicode="U" glyph-name="U" horiz-adv-x="668" d="M216 677V274Q216 230 225 201T251 154T291 129T340 121Q394 121 422 159T451 274V677H616V265Q616 211 601 162T552 76T462 16T327 -6Q250 -6 198 16T113 76T67 163T52 265V677H216Z" />
<glyph unicode="V" glyph-name="V" horiz-adv-x="642" d="M391 0H251L-2 677H172L262 407Q282 346 297 293T322 201Q332 239 347 291T384 406L476 677H644L391 0Z" />
<glyph unicode="W" glyph-name="W" horiz-adv-x="912" d="M494 309Q487 331 482 354T472 398T464 436T457 463Q455 453 451 434T443 393T433 348T422 306L327 0H194L6 677H170L234 423Q240 400 245 375T255 325T264 276T271 234Q279 271 290 323T316 422L392 677H526L604
420Q621 365 630 316T648 230Q653 266 661 315T683 421L746 677H912L724 0H591L494 309Z" />
<glyph unicode="X" glyph-name="X" horiz-adv-x="635" d="M0 0L210 355L20 677H200L295 506Q299 499 304 488T317 464Q324 475 329 486T340 505L436 677H616L425 354L635 0H453L341 200Q336 208 330 219T317 243L294 200L182 0H0Z" />
<glyph unicode="Y" glyph-name="Y" horiz-adv-x="589" d="M209 260L0 677H174L294 418L417 677H589L373 251V0H209V260Z" />
<glyph unicode="Z" glyph-name="Z" horiz-adv-x="548" d="M36 0V112L310 542Q291 541 271 541T231 540H58L33 677H507V564L237 135Q253 136 270 136T305 137H520V0H36Z" />
<glyph unicode="[" glyph-name="bracketleft" horiz-adv-x="401" d="M360 720V615H233V-81H360V-186H72V720H360Z" />
<glyph unicode="\" glyph-name="backslash" horiz-adv-x="447" d="M465 -126H300L-18 729H147L465 -126Z" />
<glyph unicode="]" glyph-name="bracketright" horiz-adv-x="401" d="M329 -186H41V-81H169V615H41V720H329V-186Z" />
<glyph unicode="^" glyph-name="asciicircum" horiz-adv-x="563" d="M383 286L313 438Q304 457 295 480T281 518Q276 503 267 481T249 438L179 285L42 310L221 677H341L520 310L383 286Z" />
<glyph unicode="_" glyph-name="underscore" horiz-adv-x="500" d="M0 -52H500V-163H0V-52Z" />
<glyph unicode="`" glyph-name="grave" horiz-adv-x="492" d="M246 557Q242 560 219 575T164 614T94 671T26 743L130 842L313 628L246 557Z" />
<glyph unicode="a" glyph-name="a" horiz-adv-x="544" d="M477 241Q477 181 485 141T504 77Q516 48 532 32L405 -8Q394 2 385 17Q377 30 370 48T357 92Q340 45 307 20T220 -6Q171 -6 135 12T74 62T39 141T27 243Q27 300 45 349T97 433T176 489T278 509Q309 509
344 505T408 495T456 485T477 480V241ZM261 110T274 123T298 158T313 208T319 269V385Q312 388 300 390T278 393Q254 393 238 383T213 354T199 309T195 253Q195 225 196 200T202 154T218 122T246 110Q261 110 274 123Z" />
<glyph unicode="b" glyph-name="b" horiz-adv-x="534" d="M57 698L215 725V459Q254 509 319 509Q366 509 401 491T460 441T495 362T507 259Q507 202 489 154T437 70T358 14T256 -6Q225 -6 192 -2T130 7T81 16T57 23V698ZM272 393T259 379T236 342T221 288T215
224V117Q221 115 233 113T256 110Q280 110 296 120T321 149T335 193T339 249Q339 277 338 303T332 349T316 381T288 393Q272 393 259 379Z" />
<glyph unicode="c" glyph-name="c" horiz-adv-x="419" d="M338 360Q326 374 313 384T280 394Q268 394 253 390T225 372T204 330T195 254Q195 207 204 179T228 135T260 115T294 110Q306 110 320 113T346 119T368 126T378 130L407 25L396 20Q385 14 366 8T319 -4T258
-9Q197 -9 153 9T81 59T40 136T27 237Q27 304 45 355T96 442T173 494T270 512Q319 512 356 493T416 441L338 360Z" />
<glyph unicode="d" glyph-name="d" horiz-adv-x="544" d="M405 -8L399 -1Q393 5 385 18T369 49T357 92Q340 45 307 20T220 -6Q171 -6 135 12T74 62T39 141T27 243Q27 300 45 349T97 433T176 489T278 509Q287 509 297 508T319 506V724L477 698V241Q477 182 485
142T504 78T523 43L532 32L405 -8ZM261 110T274 123T298 158T313 208T319 269V385Q312 388 300 390T278 393Q254 393 238 383T213 354T199 309T195 253Q195 225 196 200T202 154T218 122T246 110Q261 110 274 123Z" />
<glyph unicode="e" glyph-name="e" horiz-adv-x="479" d="M27 304T46 355T100 441T181 494T281 512Q328 512 361 501T415 469T446 421T456 361Q456 325 438 293T387 237T306 196T198 175Q205 145 223 127T280 108Q302 108 327 113T373 124Q398 131 422 140L452
36Q425 23 393 13Q366 5 331 -2T255 -9Q194 -9 151 9T80 59T40 136T27 237Q27 304 46 355ZM242 399T229 388T207 359T195 319T190 276Q220 277 240 285T274 305T293 331T299 357Q299 376 289 387T261 399Q242 399 229 388Z" />
<glyph unicode="f" glyph-name="f" horiz-adv-x="369" d="M326 579Q321 587 310 595T283 604Q260 604 244 589T228 544Q228 521 232 502H360L340 382H251V17Q251 -40 234 -79T189 -145T129 -190T64 -223L-8 -106Q40 -81 66 -53T93 14V382H16V502H93Q87 517 84
533T80 567Q80 604 93 632T130 681T186 711T258 722Q313 722 345 704T402 659L326 579Z" />
<glyph unicode="g" glyph-name="g" horiz-adv-x="539" d="M135 -51Q179 -66 211 -74T281 -83Q321 -83 345 -60T370 6Q370 52 356 88Q339 43 306 19T220 -6Q171 -6 135 12T74 62T39 141T27 243Q27 300 45 349T97 433T176 489T278 509Q308 509 340 505T401 496T451
487T480 480L476 231Q476 199 481 172T493 118T506 63T512 3Q512 -102 453 -158T291 -215Q245 -215 195 -204T98 -173L135 -51ZM262 110T275 123T298 160T313 213T319 276V385Q312 388 300 390T278 393Q254 393 238 383T213 354T199 309T195 253Q195 225 196 200T202
154T218 122T246 110Q262 110 275 123Z" />
<glyph unicode="h" glyph-name="h" horiz-adv-x="542" d="M215 464Q241 487 275 498T346 509Q424 509 457 462T490 335V0H331V312Q331 347 323 368T291 390Q278 390 265 382T240 357T222 317T215 264V0H57V698L215 725V464Z" />
<glyph unicode="i" glyph-name="i" horiz-adv-x="285" d="M122 -4T87 25T52 109V502H210V154Q210 131 217 123T238 115Q246 115 254 116T264 119L278 20Q277 19 269 16T248 8T217 0T179 -4Q122 -4 87 25ZM175 743T197 718T219 655Q219 616 197 590T129 564Q87
564 65 589T42 650Q42 690 65 716T133 743Q175 743 197 718Z" />
<glyph unicode="j" glyph-name="j" horiz-adv-x="273" d="M60 502H217V43Q217 -13 203 -54T164 -125T103 -179T26 -223L-40 -115Q-8 -97 12 -79T42 -42T56 -2T60 41V502ZM182 743T204 718T227 655Q227 616 205 590T137 564Q95 564 73 589T50 650Q50 690 72 716T140
743Q182 743 204 718Z" />
<glyph unicode="k" glyph-name="k" horiz-adv-x="537" d="M215 725V463Q234 480 265 494T346 509Q377 509 404 500T450 474T481 432T493 376Q493 331 477 302T440 255Q417 235 388 223L528 0H348Q304 74 277 135T240 250L239 265Q246 266 262 270T294 284T323
309T336 345Q336 368 325 380T295 393Q272 393 257 382T232 357T219 330T215 310V0H57V698L215 725Z" />
<glyph unicode="l" glyph-name="l" horiz-adv-x="321" d="M149 -4T125 6T84 33T60 74T52 124V698L210 725V158Q210 134 218 125T250 115Q261 115 274 117T299 121L314 22Q299 15 264 6T184 -4Q149 -4 125 6Z" />
<glyph unicode="m" glyph-name="m" horiz-adv-x="798" d="M587 0V312Q587 347 581 368T554 390Q530 390 509 356T488 264V0H329V312Q329 347 324 368T296 390Q271 390 251 355T230 259V0H72V260Q72 320 64 359T44 424Q32 452 17 469L144 509Q152 499 161 486Q169
475 176 458T190 418Q214 465 256 487T351 509Q395 509 422 492T467 441Q493 477 529 493T609 509Q648 509 674 497T715 462T738 407T745 335V0H587Z" />
<glyph unicode="n" glyph-name="n" horiz-adv-x="557" d="M346 0V312Q346 347 338 368T306 390Q278 390 254 354T230 251V0H72V260Q72 320 64 359T44 424Q32 452 17 469L144 509Q153 499 162 486Q170 475 177 458T190 418Q216 465 261 487T361 509Q439 509 472
462T505 335V0H346Z" />
<glyph unicode="o" glyph-name="o" horiz-adv-x="520" d="M383 512T437 444T492 256Q492 199 478 151T434 67T360 11T256 -10Q196 -10 153 7T82 58T41 138T27 245Q27 302 41 351T85 435T159 491T264 512Q383 512 437 444ZM237 393T225 383T207 354T198 310T195
256Q195 226 198 199T208 152T230 121T265 109Q283 109 295 120T313 149T322 193T325 246Q325 277 322 303T312 350T290 381T255 393Q237 393 225 383Z" />
<glyph unicode="p" glyph-name="p" horiz-adv-x="549" d="M72 -221V260Q72 320 64 359T44 424Q32 452 17 469L144 509Q156 497 166 480Q174 466 182 445T194 395Q213 452 246 480T334 509Q381 509 416 491T475 441T510 362T522 259Q522 203 504 155T454 71T377
15T282 -6Q254 -6 230 0V-194L72 -221ZM288 393T275 381T251 348T236 300T230 242V117Q237 115 249 113T271 110Q295 110 311 120T336 149T350 193T354 249Q354 277 353 303T347 349T331 381T303 393Q288 393 275 381Z" />
<glyph unicode="q" glyph-name="q" horiz-adv-x="534" d="M477 -221L319 -194V43Q300 20 275 7T215 -6Q168 -6 133 12T74 62T39 141T27 243Q27 300 45 349T97 433T176 489T278 509Q309 509 344 504T409 494Q443 488 477 480V-221ZM262 110T275 124T298 161T313
214T319 278V385Q312 388 300 390T278 393Q254 393 238 383T213 354T199 309T195 253Q195 225 196 200T202 154T218 122T246 110Q262 110 275 124Z" />
<glyph unicode="r" glyph-name="r" horiz-adv-x="398" d="M296 358T283 352T258 334T238 302T230 255V0H72V260Q72 320 64 359T44 424Q32 452 17 469L144 509Q152 499 161 486Q168 475 176 458T189 419Q214 467 248 488T330 509Q351 509 367 506T395 498L354 347Q347
351 336 354T307 358Q296 358 283 352Z" />
<glyph unicode="s" glyph-name="s" horiz-adv-x="423" d="M212 511Q250 511 282 505T340 490Q369 480 393 469L343 357Q335 361 323 367T296 379T265 389T234 393Q218 393 207 386T196 364Q196 348 216 333T271 303Q331 278 363 244T396 151Q396 119 385 90T351
38T294 3T216 -10Q181 -10 151 -5T95 7T49 22T17 36L69 151Q74 149 86 142T115 128T150 116T186 110Q207 110 220 118T234 142Q234 161 218 176T175 201Q100 231 68 268T35 362Q35 394 47 421T82 468T137 499T212 511Z" />
<glyph unicode="t" glyph-name="t" horiz-adv-x="392" d="M10 498H92L109 601L246 631V498H364L345 382H246V159Q246 115 292 115Q317 115 340 120Q352 123 364 126L391 20Q371 13 336 5T249 -4Q174 -4 132 27T89 132V382H10V498Z" />
<glyph unicode="u" glyph-name="u" horiz-adv-x="557" d="M327 502H485V241Q485 181 493 141T512 77Q524 48 540 32L413 -8Q404 1 395 15Q387 26 379 43T366 84Q340 37 295 16T196 -6Q157 -6 130 6T85 41T60 96T52 168V502H211V189Q211 154 219 133T251 111Q279
111 303 148T327 252V502Z" />
<glyph unicode="v" glyph-name="v" horiz-adv-x="525" d="M476 502Q480 486 484 450T488 375Q488 271 472 199T422 81T339 15T219 -6Q133 -6 93 43T52 173V502H210V176Q210 147 218 127T246 106Q270 106 286 129T311 190T325 274T330 367Q330 417 326 449T318 502H476Z" />
<glyph unicode="w" glyph-name="w" horiz-adv-x="771" d="M722 502Q725 486 729 450T733 375Q733 271 718 199T671 81T590 15T472 -6Q392 -6 352 60Q325 21 290 8T204 -6Q162 -6 133 6T86 42T60 98T52 172V502H210V176Q210 147 220 127T250 106Q283 106 298 152T314
304V502H472V481Q472 460 472 428T471 357T471 282T470 217T470 176Q470 147 480 127T510 106Q532 106 545 127T564 185T573 268T575 367Q575 418 571 450T564 502H722Z" />
<glyph unicode="x" glyph-name="x" horiz-adv-x="511" d="M-13 0L157 264L8 498H186L246 402Q251 394 256 382T267 357Q275 368 283 384T296 410Q310 438 318 461T328 498H492Q489 479 477 448T442 375Q425 344 402 316T356 264L518 0H342L276 115Q271 123 265
135T253 160L230 115L161 0H-13Z" />
<glyph unicode="y" glyph-name="y" horiz-adv-x="547" d="M482 231Q482 199 487 172T500 118T513 63T519 3Q519 -102 460 -158T299 -215Q253 -215 203 -204T105 -173L142 -51Q186 -66 219 -74T289 -83Q329 -83 353 -60T378 6Q378 26 375 42T364 79Q338 34 293
14T196 -6Q157 -6 130 6T85 41T60 96T52 168V502H211V189Q211 154 219 133T251 111Q264 111 277 120T302 147T320 190T327 246V502H486L482 231Z" />
<glyph unicode="z" glyph-name="z" horiz-adv-x="423" d="M22 0V88L212 384Q193 383 176 383T142 382H50L30 498H397V401L217 113Q230 114 242 114T269 115H406V0H22Z" />
<glyph unicode="{" glyph-name="braceleft" horiz-adv-x="402" d="M108 615T116 639T144 682T194 712T269 724Q295 724 325 721T390 708L363 610Q355 612 342 615T315 618Q291 618 280 605T268 574Q268 529 274 494T281 420Q281 360 261 321T192 254Q240 226 260
188T281 90Q281 51 275 16T268 -64Q268 -82 279 -95T315 -108Q328 -108 341 -106T363 -100L390 -198Q355 -208 325 -211T269 -214Q225 -214 194 -203T144 -173T117 -130T108 -79Q108 -25 115 17T122 104Q122 143 105 168T52 201V308Q87 316 104 341T122 406Q122
450 115 492T108 589Q108 615 116 639Z" />
<glyph unicode="|" glyph-name="bar" horiz-adv-x="339" d="M247 730V-126H92V730H247Z" />
<glyph unicode="}" glyph-name="braceright" horiz-adv-x="402" d="M294 535T287 493T280 406Q280 367 297 342T350 308V201Q315 193 298 168T280 104Q280 60 287 18T294 -79Q294 -105 286 -129T258 -172T208 -202T133 -214Q108 -214 78 -211T12 -198L39 -100Q47
-103 60 -105T87 -108Q111 -108 122 -95T134 -64Q134 -19 128 16T121 90Q121 149 141 187T210 254Q162 282 142 321T121 420Q121 459 127 494T134 574Q134 592 123 605T87 618Q74 618 61 615T39 610L12 708Q47 718 77 721T133 724Q177 724 208 713T258 683T285
640T294 589Q294 535 287 493Z" />
<glyph unicode="~" glyph-name="asciitilde" horiz-adv-x="542" d="M212 406T234 397T277 376T316 356T358 346Q389 346 406 357T445 392L499 331Q484 304 463 283Q445 265 419 250T358 235Q329 235 307 244T265 265T226 285T183 295Q168 295 157 293T136 284T117
270T96 249L42 310Q57 337 78 358Q96 376 122 391T183 406Q212 406 234 397Z" />
<glyph unicode="&#xa0;" glyph-name="uni00A0" horiz-adv-x="255" />
<glyph unicode="&#xa1;" glyph-name="exclamdown" horiz-adv-x="329" d="M113 326Q69 326 46 352T23 418Q23 453 46 479T111 505Q155 505 177 479T200 414Q200 376 178 351T113 326ZM43 275H188L217 -182H43V275Z" />
<glyph unicode="&#xa2;" glyph-name="cent" horiz-adv-x="506" d="M246 -42V74Q193 79 156 97T94 146T59 218T47 308Q47 365 61 410T102 488T165 540T246 567V654H361V566Q394 560 424 545T478 499L406 428Q384 451 361 460V178Q389 181 407 186T440 197L474 108Q460
100 433 91T361 77V-42H246ZM199 267T211 237T246 192V456Q225 445 212 415T199 325Q199 267 211 237Z" />
<glyph unicode="&#xa3;" glyph-name="sterling" horiz-adv-x="573" d="M126 357L131 429Q135 476 151 515T195 582T265 627T360 643Q393 643 420 637T469 623T506 604T530 586L469 480Q465 483 457 489T435 502T405 514T367 519Q334 519 317 494T296 436L288 357H449L428
236H275L274 218Q270 188 263 165T245 123Q253 124 261 124T277 125Q306 125 333 122T390 119Q421 119 445 127T480 142L527 31Q523 29 511 23T480 11T438 -1T391 -6Q346 -6 309 0T237 6Q178 6 140 3T93 -2L54 93Q57 94 66 100T85 119T103 149T113 195L116 236H58V357H126Z"
/>
<glyph unicode="&#xa4;" glyph-name="currency" horiz-adv-x="621" d="M80 359T119 418L23 503L117 598L210 493Q255 514 311 514Q366 514 412 494L504 598L598 503L502 418Q521 390 531 356T542 283Q542 244 532 211T502 148L599 64L504 -31L411 73Q388 63 363
58T309 52Q282 52 257 57T210 73L117 -31L22 64L120 149Q80 207 80 283Q80 359 119 418ZM196 261T204 238T228 198T264 171T310 161Q335 161 356 170T393 195T417 234T426 282Q426 308 418 331T394 371T357 398T310 408Q260 408 228 375T196 288Q196 261 204 238Z"
/>
<glyph unicode="&#xa5;" glyph-name="yen" horiz-adv-x="631" d="M187 352L22 644H197L315 401L436 644H609L443 352H526V235H394V194H526V76H394V0H230V76H99V194H230V235H99V352H187Z" />
<glyph unicode="&#xa6;" glyph-name="brokenbar" horiz-adv-x="339" d="M92 353V730H247V353H92ZM92 -126V250H247V-126H92Z" />
<glyph unicode="&#xa7;" glyph-name="section" horiz-adv-x="583" d="M371 196T362 211T336 242T300 274T257 309Q234 301 216 287T197 246Q197 231 206 216T232 184T268 152T310 117Q333 125 352 140T371 181Q371 196 362 211ZM222 -224T182 -213T117 -191L165
-81Q179 -88 203 -96T248 -105Q265 -105 275 -98T286 -75Q286 -61 273 -46T239 -13T192 24T138 66Q95 101 69 139T42 230Q42 282 69 323T162 393Q145 413 133 439T121 499Q121 531 133 558T167 606T223 638T298 650Q346 650 385 640T451 618L403 508Q388 515 365
523T320 532Q303 532 293 525T282 501Q282 488 293 474T324 443T369 407T421 367Q467 332 496 292T525 197Q525 144 498 103T405 33Q422 13 434 -13T447 -72Q447 -104 435 -132T401 -180T345 -212T270 -224Q222 -224 182 -213Z" />
<glyph unicode="&#xa8;" glyph-name="dieresis" horiz-adv-x="492" d="M208 615T189 593T133 571Q98 571 80 592T61 644Q61 677 79 699T136 722Q171 722 189 700T208 648Q208 615 189 593ZM423 615T404 593T348 571Q313 571 295 592T276 644Q276 677 294 699T351
722Q386 722 404 700T423 648Q423 615 404 593Z" />
<glyph unicode="&#xa9;" glyph-name="copyright" horiz-adv-x="782" d="M37 418T63 482T137 594T250 667T394 693Q472 693 536 667T646 594T718 483T744 340Q744 262 718 197T644 85T531 12T387 -14Q309 -14 245 12T135 85T63 197T37 340Q37 418 63 482ZM146 292T164
245T214 162T291 105T390 84Q444 84 489 103T567 155T618 235T636 334Q636 387 618 434T568 518T490 575T391 596Q337 596 292 577T215 524T164 445T146 345Q146 292 164 245ZM455 419Q448 422 440 426T418 430Q395 430 387 406T379 345Q379 297 393 278T433 258Q453
258 467 262T487 270L515 167Q514 166 506 162T482 154T444 146T394 142Q305 142 266 193T226 333Q226 436 275 490T405 545Q450 545 478 532T527 498L455 419Z" />
<glyph unicode="&#xaa;" glyph-name="ordfeminine" horiz-adv-x="418" d="M354 503Q354 465 359 439T372 395T386 368T396 356L295 325Q290 329 276 345T255 392Q244 363 222 345T164 327Q98 327 63 376T27 505Q27 545 40 579T77 639T137 679T218 693Q238 693
258 691T296 686T329 680T354 674V503ZM197 425T204 433T216 456T225 490T228 529V593Q223 595 219 596T209 597Q183 597 174 572T164 511Q164 478 168 452T189 425Q197 425 204 433Z" />
<glyph unicode="&#xab;" glyph-name="guillemotleft" horiz-adv-x="605" d="M272 7Q229 44 188 84Q153 118 113 160T42 245Q73 287 113 329T188 405Q229 445 272 482L338 408L208 245L338 82L272 7ZM513 7Q469 44 428 84Q393 118 353 160T283 245Q313 287 353
329T428 405Q469 445 513 482L578 408L448 245L578 82L513 7Z" />
<glyph unicode="&#xac;" glyph-name="logicalnot" horiz-adv-x="524" d="M42 411H482V168H368V295H42V411Z" />
<glyph unicode="&#xad;" glyph-name="uni00AD" horiz-adv-x="375" d="M42 372H333V261H42V372Z" />
<glyph unicode="&#xae;" glyph-name="registered" horiz-adv-x="584" d="M52 506T70 550T120 625T197 675T294 693Q346 693 390 676T465 626T513 550T531 454Q531 401 513 357T463 282T386 232T290 214Q237 214 194 232T119 281T70 357T52 454Q52 506 70 550ZM125
420T137 388T171 331T223 293T290 279Q327 279 357 291T410 326T444 380T457 449Q457 486 445 518T411 575T358 613T290 627Q254 627 224 615T172 580T138 526T125 457Q125 420 137 388ZM332 581T357 565T383 511Q383 473 347 452Q355 449 361 442T373 423T385
393T402 347L337 324Q325 353 318 372T304 403T291 420T274 425H269V325H201V580Q209 580 234 580T284 581Q332 581 357 565ZM269 536V471Q276 471 286 473Q301 475 307 482T313 504Q313 518 306 527T281 536H269Z" />
<glyph unicode="&#xaf;" glyph-name="overscore" horiz-adv-x="492" d="M73 683H404V572H73V683Z" />
<glyph unicode="&#xb0;" glyph-name="degree" horiz-adv-x="311" d="M32 653T67 687T157 721Q214 721 246 686T279 596Q279 568 270 545T244 506T204 480T154 471Q97 471 65 506T32 596Q32 653 67 687ZM116 573T128 561T155 548Q174 548 185 560T196 596Q196 618
185 630T155 643Q137 643 127 632T116 597Q116 573 128 561Z" />
<glyph unicode="&#xb1;" glyph-name="plusminus" horiz-adv-x="505" d="M53 359H192V498H314V359H453V243H314V139H453V23H52V139H192V243H53V359Z" />
<glyph unicode="&#xb2;" glyph-name="uni00B2" horiz-adv-x="323" d="M27 654Q52 668 90 680T172 693Q223 693 256 668T289 591Q289 556 273 524T225 457Q213 443 191 423H298V328H31V411Q44 422 56 433Q67 443 78 454T100 477Q132 512 146 533T161 571Q161 596
142 596Q126 596 108 589T70 570L27 654Z" />
<glyph unicode="&#xb3;" glyph-name="uni00B3" horiz-adv-x="333" d="M223 693T255 672T288 607Q288 576 271 559T232 530Q263 520 283 499T303 442Q303 419 296 398T272 359T228 332T160 321Q131 321 97 331T33 359L66 440Q80 432 94 426Q106 421 121 417T151
413Q185 413 185 445Q185 457 179 465T160 473Q152 473 145 472T131 470Q124 468 117 467L87 540Q99 543 112 546T136 553T154 564T161 580Q161 596 145 596Q132 596 115 591T71 572L29 657Q54 671 92 682T172 693Q223 693 255 672Z" />
<glyph unicode="&#xb4;" glyph-name="acute" horiz-adv-x="492" d="M139 628L321 842L425 743Q393 704 355 670T284 611Q245 581 206 557L139 628Z" />
<glyph unicode="&#xb5;" glyph-name="uni00B5" horiz-adv-x="561" d="M57 502H215V181Q215 149 228 130T264 111Q290 111 310 147T331 246V502H489V241Q489 182 497 142T516 78T535 44T544 32L418 -8Q417 -7 412 -2T399 15T385 42T371 80Q354 35 327 15T265 -6Q239
-6 215 7V-194L57 -221V502Z" />
<glyph unicode="&#xb6;" glyph-name="paragraph" horiz-adv-x="592" d="M290 250Q172 250 112 308T52 465Q52 565 113 622T290 679V250ZM530 43Q530 -13 515 -54T473 -126T410 -180T331 -223L265 -112Q302 -92 322 -73T352 -34T363 4T365 41V677H530V43Z" />
<glyph unicode="&#xb7;" glyph-name="middot" horiz-adv-x="262" d="M174 400T196 375T219 312Q219 274 197 248T130 221Q88 221 65 247T42 308Q42 347 65 373T132 400Q174 400 196 375Z" />
<glyph unicode="&#xb8;" glyph-name="cedilla" horiz-adv-x="492" d="M277 15L265 -37Q304 -41 331 -62T358 -126Q358 -155 348 -176T319 -210T278 -230T227 -236Q195 -236 165 -230T112 -212L135 -137Q149 -143 167 -147T201 -151Q246 -151 246 -127Q246 -117
237 -110T215 -97T185 -90T152 -87L178 15H277Z" />
<glyph unicode="&#xb9;" glyph-name="uni00B9" horiz-adv-x="285" d="M245 684V328H122V566Q106 552 88 541T49 522L2 609Q14 613 32 620T70 637T109 659T143 684H245Z" />
<glyph unicode="&#xba;" glyph-name="ordmasculine" horiz-adv-x="429" d="M311 693T351 646T391 514Q391 474 381 440T348 381T292 342T212 327Q118 327 78 374T37 506Q37 546 48 580T81 640T137 679T218 693Q311 693 351 646ZM190 608T183 581T175 514Q175 493
177 475T184 442T197 420T218 412Q238 412 246 440T254 508Q254 550 245 579T211 608Q190 608 183 581Z" />
<glyph unicode="&#xbb;" glyph-name="guillemotright" horiz-adv-x="605" d="M333 482Q376 445 417 405Q452 371 492 329T563 245Q532 203 492 161T417 84Q376 44 333 7L268 82L398 245L268 408L333 482ZM93 482Q136 445 177 405Q212 371 252 329T323 245Q292
203 252 161T177 84Q136 44 93 7L27 82L157 245L27 408L93 482Z" />
<glyph unicode="&#xbc;" glyph-name="onequarter" horiz-adv-x="777" d="M450 594H583L301 -8H169L450 594ZM244 594V238H121V476Q88 445 47 432L1 519Q13 523 31 530T69 547T108 569T142 594H244ZM713 156H765L755 70H713V0H606V70H442V133L521 358H630L558 156H606V248L713
268V156Z" />
<glyph unicode="&#xbd;" glyph-name="onehalf" horiz-adv-x="794" d="M450 594H583L301 -8H169L450 594ZM244 594V238H121V476Q88 445 47 432L1 519Q13 523 31 530T69 547T108 569T142 594H244ZM499 326Q523 340 561 352T643 365Q694 365 727 340T761 263Q761
228 745 196T697 129Q691 122 682 114T662 95H769V0H502V82Q515 93 527 104Q538 114 550 125T572 148Q604 183 618 204T632 242Q632 267 613 267Q597 267 579 260T541 241L499 326Z" />
<glyph unicode="&#xbe;" glyph-name="threequarters" horiz-adv-x="816" d="M482 594H614L333 -8H200L482 594ZM746 153H799L789 68H746V0H639V68H476V130L554 356H663L591 153H639V245L746 265V153ZM216 594T248 573T281 508Q281 477 264 460T225 431Q256 421
276 400T296 343Q296 320 289 299T265 260T221 233T153 222Q124 222 90 232T26 260L59 341Q73 333 87 327Q99 322 114 318T144 314Q178 314 178 346Q178 358 172 366T153 374Q145 374 138 373T124 371Q117 369 110 368L80 441Q92 444 105 447T129 454T147 465T154
481Q154 497 138 497Q125 497 108 492T64 473L22 558Q47 572 85 583T165 594Q216 594 248 573Z" />
<glyph unicode="&#xbf;" glyph-name="questiondown" horiz-adv-x="444" d="M142 -192T91 -155T40 -43Q40 -14 50 14T75 68T110 118T148 166Q176 201 196 230T229 297L352 264Q352 214 331 173T285 96T238 30T217 -28Q217 -47 230 -63T269 -80Q282 -80 293 -78T317
-72T346 -60T384 -42L433 -142Q390 -162 343 -177T230 -192Q142 -192 91 -155ZM246 326T224 351T201 414Q201 452 223 478T290 505Q332 505 354 479T377 418Q377 379 355 353T288 326Q246 326 224 351Z" />
<glyph unicode="&#xc0;" glyph-name="Agrave" horiz-adv-x="649" d="M256 677H403L651 0H484L434 163H215L163 0H-1L256 677ZM397 285Q387 314 377 345T357 407T339 463T325 508Q319 489 311 463T294 406T274 345T253 285H397ZM322 725Q313 728 286 737T223 764T149
808T77 871L177 972L384 799L322 725Z" />
<glyph unicode="&#xc1;" glyph-name="Aacute" horiz-adv-x="649" d="M256 677H403L651 0H484L434 163H215L163 0H-1L256 677ZM397 285Q387 314 377 345T357 407T339 463T325 508Q319 489 311 463T294 406T274 345T253 285H397ZM264 799L471 972L571 871Q538 835
499 809T424 765T362 738T326 725L264 799Z" />
<glyph unicode="&#xc2;" glyph-name="Acircumflex" horiz-adv-x="649" d="M256 677H403L651 0H484L434 163H215L163 0H-1L256 677ZM397 285Q387 314 377 345T357 407T339 463T325 508Q319 489 311 463T294 406T274 345T253 285H397ZM124 800L329 976L534 800L472
725Q452 733 414 752T329 803Q283 771 245 753T185 725L124 800Z" />
<glyph unicode="&#xc3;" glyph-name="Atilde" horiz-adv-x="649" d="M256 677H403L651 0H484L434 163H215L163 0H-1L256 677ZM397 285Q387 314 377 345T357 407T339 463T325 508Q319 489 311 463T294 406T274 345T253 285H397ZM154 857Q166 863 180 868Q192 873
207 876T242 880Q281 880 321 870T402 860Q420 860 434 862T460 867Q472 870 482 874V774Q472 767 460 762Q449 757 435 754T402 751Q362 751 322 761T242 771Q223 771 208 769T180 764Q166 760 154 757V857Z" />
<glyph unicode="&#xc4;" glyph-name="Adieresis" horiz-adv-x="649" d="M256 677H403L651 0H484L434 163H215L163 0H-1L256 677ZM397 285Q387 314 377 345T357 407T339 463T325 508Q319 489 311 463T294 406T274 345T253 285H397ZM290 789T271 767T215 745Q180
745 162 766T143 818Q143 851 161 873T218 896Q253 896 271 874T290 822Q290 789 271 767ZM505 789T486 767T430 745Q395 745 377 766T358 818Q358 851 376 873T433 896Q468 896 486 874T505 822Q505 789 486 767Z" />
<glyph unicode="&#xc5;" glyph-name="Aring" horiz-adv-x="649" d="M215 770T246 799T325 829Q375 829 403 798T432 719Q432 699 427 683T412 652L651 0H484L434 163H215L163 0H-1L242 642Q215 670 215 719Q215 770 246 799ZM397 285Q387 314 377 345T357 407T339
463T325 508Q319 489 311 463T294 406T274 345T253 285H397ZM289 700T297 690T319 677H328Q358 680 358 719Q358 738 349 749T323 760Q289 760 289 720Q289 700 297 690Z" />
<glyph unicode="&#xc6;" glyph-name="AE" horiz-adv-x="921" d="M460 163H266L173 0H-13L395 677H890V556H624V411H845L826 292H624V121H904V0H460V163ZM334 285H460V526L334 285Z" />
<glyph unicode="&#xc7;" glyph-name="Ccedilla" horiz-adv-x="549" d="M447 512Q419 546 393 557T341 569Q276 569 247 509T217 341Q217 290 223 248T246 175T288 128T355 111Q390 111 423 119T485 139L521 27Q495 16 457 7T371 -5L364 -37Q403 -41 430 -62T457
-126Q457 -155 447 -176T418 -210T377 -230T326 -236Q294 -236 264 -230T211 -212L234 -137Q248 -143 266 -147T300 -151Q345 -151 345 -127Q345 -117 336 -110T314 -97T284 -90T251 -87L273 -2Q151 15 95 101T39 330Q39 408 57 473T113 585T207 659T341 686Q381
686 411 679T465 661T505 634T537 603L447 512Z" />
<glyph unicode="&#xc8;" glyph-name="Egrave" horiz-adv-x="524" d="M62 677H493V556H227V411H448L429 292H227V121H507V0H62V677ZM293 725Q284 728 257 737T194 764T120 808T48 871L148 972L355 799L293 725Z" />
<glyph unicode="&#xc9;" glyph-name="Eacute" horiz-adv-x="524" d="M62 677H493V556H227V411H448L429 292H227V121H507V0H62V677ZM235 799L442 972L542 871Q509 835 470 809T395 765T333 738T297 725L235 799Z" />
<glyph unicode="&#xca;" glyph-name="Ecircumflex" horiz-adv-x="524" d="M62 677H493V556H227V411H448L429 292H227V121H507V0H62V677ZM95 800L300 976L505 800L443 725Q423 733 385 752T300 803Q254 771 216 753T156 725L95 800Z" />
<glyph unicode="&#xcb;" glyph-name="Edieresis" horiz-adv-x="524" d="M62 677H493V556H227V411H448L429 292H227V121H507V0H62V677ZM239 789T220 767T164 745Q129 745 111 766T92 818Q92 851 110 873T167 896Q202 896 220 874T239 822Q239 789 220 767ZM454
789T435 767T379 745Q344 745 326 766T307 818Q307 851 325 873T382 896Q417 896 435 874T454 822Q454 789 435 767Z" />
<glyph unicode="&#xcc;" glyph-name="Igrave" horiz-adv-x="289" d="M62 677H227V0H62V677ZM143 725Q134 728 107 737T44 764T-30 808T-102 871L-2 972L205 799L143 725Z" />
<glyph unicode="&#xcd;" glyph-name="Iacute" horiz-adv-x="289" d="M62 677H227V0H62V677ZM84 799L291 972L391 871Q358 835 319 809T244 765T182 738T146 725L84 799Z" />
<glyph unicode="&#xce;" glyph-name="Icircumflex" horiz-adv-x="289" d="M62 677H227V0H62V677ZM-55 800L150 976L355 800L293 725Q273 733 235 752T150 803Q104 771 66 753T6 725L-55 800Z" />
<glyph unicode="&#xcf;" glyph-name="Idieresis" horiz-adv-x="289" d="M62 677H227V0H62V677ZM111 789T92 767T36 745Q1 745 -17 766T-36 818Q-36 851 -18 873T39 896Q74 896 92 874T111 822Q111 789 92 767ZM326 789T307 767T251 745Q216 745 198 766T179 818Q179
851 197 873T254 896Q289 896 307 874T326 822Q326 789 307 767Z" />
<glyph unicode="&#xd0;" glyph-name="Eth" horiz-adv-x="647" d="M62 289H-8V407H62V677Q69 677 94 677T153 678T221 678T285 679Q370 679 431 654T533 582T592 473T611 333Q611 255 592 193T532 88T429 21T282 -2Q253 -2 229 -2T180 -1T127 -1T62 0V289ZM261
563T252 563T227 562V407H339V289H227V115Q240 114 250 114T278 114Q322 114 351 129T399 172T425 240T433 331Q433 563 278 563Q261 563 252 563Z" />
<glyph unicode="&#xd1;" glyph-name="Ntilde" horiz-adv-x="689" d="M462 677H627V0H486L293 292Q287 301 277 318T255 353T233 389T215 418Q216 403 217 382T220 338T223 295T224 260L227 0H62V677H197L392 387Q401 373 412 356T434 320T456 286T473 257Q472
273 471 294T469 337T466 381T465 418L462 677ZM180 860Q192 866 206 871Q218 876 233 879T268 883Q307 883 347 873T428 863Q446 863 460 865T486 870Q498 873 508 877V777Q498 770 486 765Q475 760 461 757T428 754Q388 754 348 764T268 774Q249 774 234 772T206
767Q192 763 180 760V860Z" />
<glyph unicode="&#xd2;" glyph-name="Ograve" horiz-adv-x="693" d="M432 686T489 662T583 594T637 487T655 344Q655 266 636 202T577 91T479 20T340 -6Q261 -6 204 16T109 82T55 188T37 330Q37 408 56 473T115 586T213 660T353 686Q432 686 489 662ZM274 569T245
509T215 341Q215 290 221 248T243 176T286 128T354 111Q419 111 448 169T477 334Q477 385 471 428T449 502T406 551T339 569Q274 569 245 509ZM353 725Q344 728 317 737T254 764T180 808T108 871L208 972L415 799L353 725Z" />
<glyph unicode="&#xd3;" glyph-name="Oacute" horiz-adv-x="693" d="M432 686T489 662T583 594T637 487T655 344Q655 266 636 202T577 91T479 20T340 -6Q261 -6 204 16T109 82T55 188T37 330Q37 408 56 473T115 586T213 660T353 686Q432 686 489 662ZM274 569T245
509T215 341Q215 290 221 248T243 176T286 128T354 111Q419 111 448 169T477 334Q477 385 471 428T449 502T406 551T339 569Q274 569 245 509ZM294 799L501 972L601 871Q568 835 529 809T454 765T392 738T356 725L294 799Z" />
<glyph unicode="&#xd4;" glyph-name="Ocircumflex" horiz-adv-x="693" d="M432 686T489 662T583 594T637 487T655 344Q655 266 636 202T577 91T479 20T340 -6Q261 -6 204 16T109 82T55 188T37 330Q37 408 56 473T115 586T213 660T353 686Q432 686 489 662ZM274
569T245 509T215 341Q215 290 221 248T243 176T286 128T354 111Q419 111 448 169T477 334Q477 385 471 428T449 502T406 551T339 569Q274 569 245 509ZM155 800L360 976L565 800L503 725Q483 733 445 752T360 803Q314 771 276 753T216 725L155 800Z" />
<glyph unicode="&#xd5;" glyph-name="Otilde" horiz-adv-x="693" d="M432 686T489 662T583 594T637 487T655 344Q655 266 636 202T577 91T479 20T340 -6Q261 -6 204 16T109 82T55 188T37 330Q37 408 56 473T115 586T213 660T353 686Q432 686 489 662ZM274 569T245
509T215 341Q215 290 221 248T243 176T286 128T354 111Q419 111 448 169T477 334Q477 385 471 428T449 502T406 551T339 569Q274 569 245 509ZM184 857Q196 863 210 868Q222 873 237 876T272 880Q311 880 351 870T432 860Q450 860 464 862T490 867Q502 870 512
874V774Q502 767 490 762Q479 757 465 754T432 751Q392 751 352 761T272 771Q253 771 238 769T210 764Q196 760 184 757V857Z" />
<glyph unicode="&#xd6;" glyph-name="Odieresis" horiz-adv-x="693" d="M432 686T489 662T583 594T637 487T655 344Q655 266 636 202T577 91T479 20T340 -6Q261 -6 204 16T109 82T55 188T37 330Q37 408 56 473T115 586T213 660T353 686Q432 686 489 662ZM274 569T245
509T215 341Q215 290 221 248T243 176T286 128T354 111Q419 111 448 169T477 334Q477 385 471 428T449 502T406 551T339 569Q274 569 245 509ZM312 789T293 767T237 745Q202 745 184 766T165 818Q165 851 183 873T240 896Q275 896 293 874T312 822Q312 789 293
767ZM527 789T508 767T452 745Q417 745 399 766T380 818Q380 851 398 873T455 896Q490 896 508 874T527 822Q527 789 508 767Z" />
<glyph unicode="&#xd7;" glyph-name="multiply" horiz-adv-x="523" d="M141 502L259 384L381 505L470 415L349 294L469 174L384 90L265 209L142 87L52 177L174 299L56 418L141 502Z" />
<glyph unicode="&#xd8;" glyph-name="Oslash" horiz-adv-x="693" d="M370 686T386 685T419 681L448 746L588 690L557 621Q608 576 631 506T655 344Q655 266 636 202T577 91T479 20T340 -6Q323 -6 307 -5T276 -2L246 -70L107 -13L137 55Q85 97 61 166T37 330Q37
408 56 473T115 586T213 660T353 686Q370 686 386 685ZM274 569T245 509T215 341Q215 314 216 290T222 243L367 566Q353 569 339 569Q274 569 245 509ZM477 360T476 383T470 428L328 113Q334 111 340 111T354 111Q419 111 448 169T477 334Q477 360 476 383Z" />
<glyph unicode="&#xd9;" glyph-name="Ugrave" horiz-adv-x="668" d="M216 677V274Q216 230 225 201T251 154T291 129T340 121Q394 121 422 159T451 274V677H616V265Q616 211 601 162T552 76T462 16T327 -6Q250 -6 198 16T113 76T67 163T52 265V677H216ZM327 725Q318
728 291 737T228 764T154 808T82 871L182 972L389 799L327 725Z" />
<glyph unicode="&#xda;" glyph-name="Uacute" horiz-adv-x="668" d="M216 677V274Q216 230 225 201T251 154T291 129T340 121Q394 121 422 159T451 274V677H616V265Q616 211 601 162T552 76T462 16T327 -6Q250 -6 198 16T113 76T67 163T52 265V677H216ZM268 799L475
972L575 871Q542 835 503 809T428 765T366 738T330 725L268 799Z" />
<glyph unicode="&#xdb;" glyph-name="Ucircumflex" horiz-adv-x="668" d="M216 677V274Q216 230 225 201T251 154T291 129T340 121Q394 121 422 159T451 274V677H616V265Q616 211 601 162T552 76T462 16T327 -6Q250 -6 198 16T113 76T67 163T52 265V677H216ZM129
800L334 976L539 800L477 725Q457 733 419 752T334 803Q288 771 250 753T190 725L129 800Z" />
<glyph unicode="&#xdc;" glyph-name="Udieresis" horiz-adv-x="668" d="M216 677V274Q216 230 225 201T251 154T291 129T340 121Q394 121 422 159T451 274V677H616V265Q616 211 601 162T552 76T462 16T327 -6Q250 -6 198 16T113 76T67 163T52 265V677H216ZM300
789T281 767T225 745Q190 745 172 766T153 818Q153 851 171 873T228 896Q263 896 281 874T300 822Q300 789 281 767ZM515 789T496 767T440 745Q405 745 387 766T368 818Q368 851 386 873T443 896Q478 896 496 874T515 822Q515 789 496 767Z" />
<glyph unicode="&#xdd;" glyph-name="Yacute" horiz-adv-x="574" d="M201 260L-8 677H166L286 418L409 677H581L365 251V0H201V260ZM228 799L435 972L535 871Q502 835 463 809T388 765T326 738T290 725L228 799Z" />
<glyph unicode="&#xde;" glyph-name="Thorn" horiz-adv-x="544" d="M62 677H227V559H270Q398 559 462 505T527 353Q527 300 509 260T455 193T370 153T257 139H227V0H62V677ZM227 253H269Q303 253 326 277T349 345Q349 363 345 380T330 412T304 435T264 445Q251
445 242 445T227 443V253Z" />
<glyph unicode="&#xdf;" glyph-name="germandbls" horiz-adv-x="623" d="M238 25Q238 -33 221 -73T176 -141T110 -189T33 -224L-20 -140Q35 -111 57 -73T80 14V494Q80 544 99 588T153 666T240 718T358 738Q412 738 450 724T513 689T548 640T559 585Q559 542 541
517T502 475T462 443T444 406Q444 387 455 374T484 348T522 321T560 287T589 237T601 165Q601 130 588 99T550 44T489 7T407 -7Q376 -7 350 -2T306 11T277 24T265 30L313 136Q324 131 342 124T377 117Q435 117 435 168Q435 189 424 203T397 230T361 255T326 284T298
323T287 378Q287 412 304 435T341 478T378 515T395 560Q395 587 375 600T326 613Q281 613 260 578T238 486V25Z" />
<glyph unicode="&#xe0;" glyph-name="agrave" horiz-adv-x="544" d="M477 241Q477 181 485 141T504 77Q516 48 532 32L405 -8Q394 2 385 17Q377 30 370 48T357 92Q340 45 307 20T220 -6Q171 -6 135 12T74 62T39 141T27 243Q27 300 45 349T97 433T176 489T278 509Q309
509 344 505T408 495T456 485T477 480V241ZM261 110T274 123T298 158T313 208T319 269V385Q312 388 300 390T278 393Q254 393 238 383T213 354T199 309T195 253Q195 225 196 200T202 154T218 122T246 110Q261 110 274 123ZM287 557Q283 560 260 575T205 614T135
671T67 743L171 842L354 628L287 557Z" />
<glyph unicode="&#xe1;" glyph-name="aacute" horiz-adv-x="544" d="M477 241Q477 181 485 141T504 77Q516 48 532 32L405 -8Q394 2 385 17Q377 30 370 48T357 92Q340 45 307 20T220 -6Q171 -6 135 12T74 62T39 141T27 243Q27 300 45 349T97 433T176 489T278 509Q309
509 344 505T408 495T456 485T477 480V241ZM261 110T274 123T298 158T313 208T319 269V385Q312 388 300 390T278 393Q254 393 238 383T213 354T199 309T195 253Q195 225 196 200T202 154T218 122T246 110Q261 110 274 123ZM218 628L400 842L504 743Q472 704 434
670T363 611Q324 581 285 557L218 628Z" />
<glyph unicode="&#xe2;" glyph-name="acircumflex" horiz-adv-x="544" d="M477 241Q477 181 485 141T504 77Q516 48 532 32L405 -8Q394 2 385 17Q377 30 370 48T357 92Q340 45 307 20T220 -6Q171 -6 135 12T74 62T39 141T27 243Q27 300 45 349T97 433T176 489T278
509Q309 509 344 505T408 495T456 485T477 480V241ZM261 110T274 123T298 158T313 208T319 269V385Q312 388 300 390T278 393Q254 393 238 383T213 354T199 309T195 253Q195 225 196 200T202 154T218 122T246 110Q261 110 274 123ZM87 631L282 828L476 631L415
557Q395 567 361 586T282 639Q238 606 204 587T148 557L87 631Z" />
<glyph unicode="&#xe3;" glyph-name="atilde" horiz-adv-x="544" d="M477 241Q477 181 485 141T504 77Q516 48 532 32L405 -8Q394 2 385 17Q377 30 370 48T357 92Q340 45 307 20T220 -6Q171 -6 135 12T74 62T39 141T27 243Q27 300 45 349T97 433T176 489T278 509Q309
509 344 505T408 495T456 485T477 480V241ZM261 110T274 123T298 158T313 208T319 269V385Q312 388 300 390T278 393Q254 393 238 383T213 354T199 309T195 253Q195 225 196 200T202 154T218 122T246 110Q261 110 274 123ZM121 686Q133 692 147 697Q159 702 174
705T209 709Q248 709 288 699T369 689Q387 689 401 691T427 696Q439 699 449 703V603Q439 596 427 591Q416 586 402 583T369 580Q329 580 289 590T209 600Q190 600 175 598T147 593Q133 589 121 586V686Z" />
<glyph unicode="&#xe4;" glyph-name="adieresis" horiz-adv-x="544" d="M477 241Q477 181 485 141T504 77Q516 48 532 32L405 -8Q394 2 385 17Q377 30 370 48T357 92Q340 45 307 20T220 -6Q171 -6 135 12T74 62T39 141T27 243Q27 300 45 349T97 433T176 489T278
509Q309 509 344 505T408 495T456 485T477 480V241ZM261 110T274 123T298 158T313 208T319 269V385Q312 388 300 390T278 393Q254 393 238 383T213 354T199 309T195 253Q195 225 196 200T202 154T218 122T246 110Q261 110 274 123ZM253 634T234 612T178 590Q143
590 125 611T106 663Q106 696 124 718T181 741Q216 741 234 719T253 667Q253 634 234 612ZM468 634T449 612T393 590Q358 590 340 611T321 663Q321 696 339 718T396 741Q431 741 449 719T468 667Q468 634 449 612Z" />
<glyph unicode="&#xe5;" glyph-name="aring" horiz-adv-x="544" d="M477 241Q477 181 485 141T504 77Q516 48 532 32L405 -8Q394 2 385 17Q377 30 370 48T357 92Q340 45 307 20T220 -6Q171 -6 135 12T74 62T39 141T27 243Q27 300 45 349T97 433T176 489T278 509Q309
509 344 505T408 495T456 485T477 480V241ZM261 110T274 123T298 158T313 208T319 269V385Q312 388 300 390T278 393Q254 393 238 383T213 354T199 309T195 253Q195 225 196 200T202 154T218 122T246 110Q261 110 274 123ZM168 704T199 733T278 763Q328 763 356
732T385 653Q385 603 354 573T275 543Q225 543 197 574T168 653Q168 704 199 733ZM242 632T252 622T276 611Q311 611 311 653Q311 672 302 683T276 694Q242 694 242 654Q242 632 252 622Z" />
<glyph unicode="&#xe6;" glyph-name="ae" horiz-adv-x="762" d="M325 509T363 499T430 476Q488 512 567 512Q614 512 647 501T701 469T732 421T742 361Q742 325 724 293T673 237T592 196T484 175Q491 145 509 127T565 108Q587 108 612 113T658 124Q683 131 707
140L737 36Q711 23 679 13Q652 5 616 -2T540 -9Q469 -9 423 14T350 80Q332 39 301 17T220 -6Q171 -6 135 12T74 62T39 141T27 243Q27 300 45 349T97 433T176 489T278 509Q325 509 363 499ZM269 110T287 138T314 212Q313 221 313 232T312 251Q312 280 319 314T341
375Q326 383 311 388T278 393Q254 393 238 383T213 354T199 309T195 253Q195 225 196 200T202 154T218 122T246 110Q269 110 287 138ZM528 399T515 388T493 359T481 319T476 276Q505 277 526 285T560 305T579 331T585 357Q585 376 574 387T547 399Q528 399 515
388Z" />
<glyph unicode="&#xe7;" glyph-name="ccedilla" horiz-adv-x="419" d="M338 360Q326 374 313 384T280 394Q268 394 253 390T225 372T204 330T195 254Q195 207 204 179T228 135T260 115T294 110Q306 110 320 113T346 119T368 126T378 130L407 25L399 21Q391 16
377 11T342 1T297 -7L290 -37Q329 -41 356 -62T383 -126Q383 -155 373 -176T344 -210T303 -230T252 -236Q220 -236 190 -230T137 -212L160 -137Q174 -143 192 -147T226 -151Q271 -151 271 -127Q271 -117 262 -110T240 -97T210 -90T177 -87L198 -4Q153 4 121 25T68
77T37 148T27 237Q27 304 45 355T96 442T173 494T270 512Q319 512 356 493T416 441L338 360Z" />
<glyph unicode="&#xe8;" glyph-name="egrave" horiz-adv-x="479" d="M27 304T46 355T100 441T181 494T281 512Q328 512 361 501T415 469T446 421T456 361Q456 325 438 293T387 237T306 196T198 175Q205 145 223 127T280 108Q302 108 327 113T373 124Q398 131 422
140L452 36Q425 23 393 13Q366 5 331 -2T255 -9Q194 -9 151 9T80 59T40 136T27 237Q27 304 46 355ZM242 399T229 388T207 359T195 319T190 276Q220 277 240 285T274 305T293 331T299 357Q299 376 289 387T261 399Q242 399 229 388ZM266 557Q262 560 239 575T184
614T114 671T46 743L150 842L333 628L266 557Z" />
<glyph unicode="&#xe9;" glyph-name="eacute" horiz-adv-x="479" d="M27 304T46 355T100 441T181 494T281 512Q328 512 361 501T415 469T446 421T456 361Q456 325 438 293T387 237T306 196T198 175Q205 145 223 127T280 108Q302 108 327 113T373 124Q398 131 422
140L452 36Q425 23 393 13Q366 5 331 -2T255 -9Q194 -9 151 9T80 59T40 136T27 237Q27 304 46 355ZM242 399T229 388T207 359T195 319T190 276Q220 277 240 285T274 305T293 331T299 357Q299 376 289 387T261 399Q242 399 229 388ZM196 628L378 842L482 743Q450
704 412 670T341 611Q302 581 263 557L196 628Z" />
<glyph unicode="&#xea;" glyph-name="ecircumflex" horiz-adv-x="479" d="M27 304T46 355T100 441T181 494T281 512Q328 512 361 501T415 469T446 421T456 361Q456 325 438 293T387 237T306 196T198 175Q205 145 223 127T280 108Q302 108 327 113T373 124Q398
131 422 140L452 36Q425 23 393 13Q366 5 331 -2T255 -9Q194 -9 151 9T80 59T40 136T27 237Q27 304 46 355ZM242 399T229 388T207 359T195 319T190 276Q220 277 240 285T274 305T293 331T299 357Q299 376 289 387T261 399Q242 399 229 388ZM65 631L260 828L454
631L393 557Q373 567 339 586T260 639Q216 606 182 587T126 557L65 631Z" />
<glyph unicode="&#xeb;" glyph-name="edieresis" horiz-adv-x="479" d="M27 304T46 355T100 441T181 494T281 512Q328 512 361 501T415 469T446 421T456 361Q456 325 438 293T387 237T306 196T198 175Q205 145 223 127T280 108Q302 108 327 113T373 124Q398 131
422 140L452 36Q425 23 393 13Q366 5 331 -2T255 -9Q194 -9 151 9T80 59T40 136T27 237Q27 304 46 355ZM242 399T229 388T207 359T195 319T190 276Q220 277 240 285T274 305T293 331T299 357Q299 376 289 387T261 399Q242 399 229 388ZM231 634T212 612T156 590Q121
590 103 611T84 663Q84 696 102 718T159 741Q194 741 212 719T231 667Q231 634 212 612ZM446 634T427 612T371 590Q336 590 318 611T299 663Q299 696 317 718T374 741Q409 741 427 719T446 667Q446 634 427 612Z" />
<glyph unicode="&#xec;" glyph-name="igrave" horiz-adv-x="276" d="M112 -4T77 25T42 109V502H200V154Q200 131 207 123T228 115Q236 115 244 116T254 119L268 20Q267 19 259 16T238 8T207 0T169 -4Q112 -4 77 25ZM121 540Q92 564 61 594Q35 620 3 653T-62 727L42
825L188 611L121 540Z" />
<glyph unicode="&#xed;" glyph-name="iacute" horiz-adv-x="276" d="M112 -4T77 25T42 109V502H200V154Q200 131 207 123T228 115Q236 115 244 116T254 119L268 20Q267 19 259 16T238 8T207 0T169 -4Q112 -4 77 25ZM43 611L188 825L293 727Q261 687 229 654T170
594Q139 564 110 540L43 611Z" />
<glyph unicode="&#xee;" glyph-name="icircumflex" horiz-adv-x="276" d="M112 -4T77 25T42 109V502H200V154Q200 131 207 123T228 115Q236 115 244 116T254 119L268 20Q267 19 259 16T238 8T207 0T169 -4Q112 -4 77 25ZM88 593T59 574T1 537L-61 610L122 794L305
610L243 537Q215 554 186 573T122 620Q88 593 59 574Z" />
<glyph unicode="&#xef;" glyph-name="idieresis" horiz-adv-x="276" d="M112 -4T77 25T42 109V502H200V154Q200 131 207 123T228 115Q236 115 244 116T254 119L268 20Q267 19 259 16T238 8T207 0T169 -4Q112 -4 77 25ZM109 615T90 593T34 571Q-1 571 -19 592T-37
644Q-37 676 -19 698T37 721Q72 721 90 699T109 647Q109 615 90 593ZM282 615T264 593T208 571Q173 571 155 592T136 644Q136 676 155 698T211 721Q246 721 264 699T282 647Q282 615 264 593Z" />
<glyph unicode="&#xf0;" glyph-name="eth" horiz-adv-x="512" d="M492 203T478 153T434 67T360 11T256 -10Q196 -10 153 8T82 59T41 139T27 244Q27 300 42 348T85 431T156 486T254 506Q275 506 293 502T326 490Q321 507 315 522T301 551L201 523L178 613L235 623L184
659L261 752Q294 732 321 708T371 656L471 686L494 596L422 581Q460 511 476 431T492 263Q492 203 478 153ZM237 388T225 378T207 350T198 308T195 255Q195 225 198 199T208 152T230 121T265 109Q283 109 295 120T313 149T322 193T325 245Q325 275 322 301T312
346T290 377T255 388Q237 388 225 378Z" />
<glyph unicode="&#xf1;" glyph-name="ntilde" horiz-adv-x="557" d="M346 0V312Q346 347 338 368T306 390Q278 390 254 354T230 251V0H72V260Q72 320 64 359T44 424Q32 452 17 469L144 509Q153 499 162 486Q170 475 177 458T190 418Q216 465 261 487T361 509Q439
509 472 462T505 335V0H346ZM170 686Q182 692 196 697Q208 702 223 705T258 709Q297 709 337 699T418 689Q436 689 450 691T476 696Q488 699 498 703V603Q488 596 476 591Q465 586 451 583T418 580Q378 580 338 590T258 600Q239 600 224 598T196 593Q182 589 170
586V686Z" />
<glyph unicode="&#xf2;" glyph-name="ograve" horiz-adv-x="520" d="M383 512T437 444T492 256Q492 199 478 151T434 67T360 11T256 -10Q196 -10 153 7T82 58T41 138T27 245Q27 302 41 351T85 435T159 491T264 512Q383 512 437 444ZM237 393T225 383T207 354T198
310T195 256Q195 226 198 199T208 152T230 121T265 109Q283 109 295 120T313 149T322 193T325 246Q325 277 322 303T312 350T290 381T255 393Q237 393 225 383ZM265 557Q261 560 238 575T183 614T113 671T45 743L149 842L332 628L265 557Z" />
<glyph unicode="&#xf3;" glyph-name="oacute" horiz-adv-x="520" d="M383 512T437 444T492 256Q492 199 478 151T434 67T360 11T256 -10Q196 -10 153 7T82 58T41 138T27 245Q27 302 41 351T85 435T159 491T264 512Q383 512 437 444ZM237 393T225 383T207 354T198
310T195 256Q195 226 198 199T208 152T230 121T265 109Q283 109 295 120T313 149T322 193T325 246Q325 277 322 303T312 350T290 381T255 393Q237 393 225 383ZM196 628L378 842L482 743Q450 704 412 670T341 611Q302 581 263 557L196 628Z" />
<glyph unicode="&#xf4;" glyph-name="ocircumflex" horiz-adv-x="520" d="M383 512T437 444T492 256Q492 199 478 151T434 67T360 11T256 -10Q196 -10 153 7T82 58T41 138T27 245Q27 302 41 351T85 435T159 491T264 512Q383 512 437 444ZM237 393T225 383T207
354T198 310T195 256Q195 226 198 199T208 152T230 121T265 109Q283 109 295 120T313 149T322 193T325 246Q325 277 322 303T312 350T290 381T255 393Q237 393 225 383ZM65 631L260 828L454 631L393 557Q373 567 339 586T260 639Q216 606 182 587T126 557L65 631Z"
/>
<glyph unicode="&#xf5;" glyph-name="otilde" horiz-adv-x="520" d="M383 512T437 444T492 256Q492 199 478 151T434 67T360 11T256 -10Q196 -10 153 7T82 58T41 138T27 245Q27 302 41 351T85 435T159 491T264 512Q383 512 437 444ZM237 393T225 383T207 354T198
310T195 256Q195 226 198 199T208 152T230 121T265 109Q283 109 295 120T313 149T322 193T325 246Q325 277 322 303T312 350T290 381T255 393Q237 393 225 383ZM99 686Q111 692 125 697Q137 702 152 705T187 709Q226 709 266 699T347 689Q365 689 379 691T405 696Q417
699 427 703V603Q417 596 405 591Q394 586 380 583T347 580Q307 580 267 590T187 600Q168 600 153 598T125 593Q111 589 99 586V686Z" />
<glyph unicode="&#xf6;" glyph-name="odieresis" horiz-adv-x="520" d="M383 512T437 444T492 256Q492 199 478 151T434 67T360 11T256 -10Q196 -10 153 7T82 58T41 138T27 245Q27 302 41 351T85 435T159 491T264 512Q383 512 437 444ZM237 393T225 383T207 354T198
310T195 256Q195 226 198 199T208 152T230 121T265 109Q283 109 295 120T313 149T322 193T325 246Q325 277 322 303T312 350T290 381T255 393Q237 393 225 383ZM231 634T212 612T156 590Q121 590 103 611T84 663Q84 696 102 718T159 741Q194 741 212 719T231 667Q231
634 212 612ZM446 634T427 612T371 590Q336 590 318 611T299 663Q299 696 317 718T374 741Q409 741 427 719T446 667Q446 634 427 612Z" />
<glyph unicode="&#xf7;" glyph-name="divide" horiz-adv-x="505" d="M318 435T300 415T247 394Q215 394 198 414T180 463Q180 494 198 514T251 535Q283 535 300 516T318 466Q318 435 300 415ZM52 358H452V242H52V358ZM318 106T300 85T247 64Q215 64 198 84T180
133Q180 164 198 185T251 206Q283 206 300 187T318 136Q318 106 300 85Z" />
<glyph unicode="&#xf8;" glyph-name="oslash" horiz-adv-x="520" d="M295 512T324 506L355 570L454 524L422 459Q458 426 475 375T492 256Q492 199 478 151T434 67T360 11T256 -10Q223 -10 196 -4L165 -68L66 -21L97 42Q61 75 44 126T27 245Q27 302 41 351T85
435T159 491T264 512Q295 512 324 506ZM237 393T225 383T207 354T198 310T195 256V243L268 392Q265 393 262 393T255 393Q237 393 225 383ZM283 109T295 120T313 149T322 193T325 246V259L252 110Q256 109 265 109Q283 109 295 120Z" />
<glyph unicode="&#xf9;" glyph-name="ugrave" horiz-adv-x="557" d="M327 502H485V241Q485 181 493 141T512 77Q524 48 540 32L413 -8Q404 1 395 15Q387 26 379 43T366 84Q340 37 295 16T196 -6Q157 -6 130 6T85 41T60 96T52 168V502H211V189Q211 154 219 133T251
111Q279 111 303 148T327 252V502ZM278 557Q274 560 251 575T196 614T126 671T58 743L162 842L345 628L278 557Z" />
<glyph unicode="&#xfa;" glyph-name="uacute" horiz-adv-x="557" d="M327 502H485V241Q485 181 493 141T512 77Q524 48 540 32L413 -8Q404 1 395 15Q387 26 379 43T366 84Q340 37 295 16T196 -6Q157 -6 130 6T85 41T60 96T52 168V502H211V189Q211 154 219 133T251
111Q279 111 303 148T327 252V502ZM208 628L390 842L494 743Q462 704 424 670T353 611Q314 581 275 557L208 628Z" />
<glyph unicode="&#xfb;" glyph-name="ucircumflex" horiz-adv-x="557" d="M327 502H485V241Q485 181 493 141T512 77Q524 48 540 32L413 -8Q404 1 395 15Q387 26 379 43T366 84Q340 37 295 16T196 -6Q157 -6 130 6T85 41T60 96T52 168V502H211V189Q211 154 219
133T251 111Q279 111 303 148T327 252V502ZM77 631L272 828L466 631L405 557Q385 567 351 586T272 639Q228 606 194 587T138 557L77 631Z" />
<glyph unicode="&#xfc;" glyph-name="udieresis" horiz-adv-x="557" d="M327 502H485V241Q485 181 493 141T512 77Q524 48 540 32L413 -8Q404 1 395 15Q387 26 379 43T366 84Q340 37 295 16T196 -6Q157 -6 130 6T85 41T60 96T52 168V502H211V189Q211 154 219 133T251
111Q279 111 303 148T327 252V502ZM243 634T224 612T168 590Q133 590 115 611T96 663Q96 696 114 718T171 741Q206 741 224 719T243 667Q243 634 224 612ZM458 634T439 612T383 590Q348 590 330 611T311 663Q311 696 329 718T386 741Q421 741 439 719T458 667Q458
634 439 612Z" />
<glyph unicode="&#xfd;" glyph-name="yacute" horiz-adv-x="547" d="M482 231Q482 199 487 172T500 118T513 63T519 3Q519 -102 460 -158T299 -215Q253 -215 203 -204T105 -173L142 -51Q186 -66 219 -74T289 -83Q329 -83 353 -60T378 6Q378 26 375 42T364 79Q338
34 293 14T196 -6Q157 -6 130 6T85 41T60 96T52 168V502H211V189Q211 154 219 133T251 111Q264 111 277 120T302 147T320 190T327 246V502H486L482 231ZM207 628L389 842L493 743Q461 704 423 670T352 611Q313 581 274 557L207 628Z" />
<glyph unicode="&#xfe;" glyph-name="thorn" horiz-adv-x="534" d="M215 457Q255 509 326 509Q371 509 404 491T461 441T495 362T507 259Q507 203 489 155T439 71T362 15T267 -6Q239 -6 215 0V-194L57 -221V698L215 725V457ZM273 392T260 381T237 351T221 306T215
252V117Q221 115 233 113T256 110Q280 110 296 120T321 149T335 193T339 249Q339 277 338 303T332 348T316 380T288 392Q273 392 260 381Z" />
<glyph unicode="&#xff;" glyph-name="ydieresis" horiz-adv-x="547" d="M482 231Q482 199 487 172T500 118T513 63T519 3Q519 -102 460 -158T299 -215Q253 -215 203 -204T105 -173L142 -51Q186 -66 219 -74T289 -83Q329 -83 353 -60T378 6Q378 26 375 42T364 79Q338
34 293 14T196 -6Q157 -6 130 6T85 41T60 96T52 168V502H211V189Q211 154 219 133T251 111Q264 111 277 120T302 147T320 190T327 246V502H486L482 231ZM242 634T223 612T167 590Q132 590 114 611T95 663Q95 696 113 718T170 741Q205 741 223 719T242 667Q242 634
223 612ZM457 634T438 612T382 590Q347 590 329 611T310 663Q310 696 328 718T385 741Q420 741 438 719T457 667Q457 634 438 612Z" />
<glyph unicode="&#x2013;" glyph-name="endash" horiz-adv-x="500" d="M0 372H500V261H0V372Z" />
<glyph unicode="&#x2014;" glyph-name="emdash" horiz-adv-x="698" d="M0 372H698V261H0V372Z" />
<glyph unicode="&#x2018;" glyph-name="quoteleft" horiz-adv-x="249" d="M200 429T195 426T179 418T151 410T111 406Q64 406 46 433T27 497Q27 561 64 620T184 722L241 643Q206 617 194 588T181 530Q181 499 189 473T200 430Q200 429 195 426Z" />
<glyph unicode="&#x2019;" glyph-name="quoteright" horiz-adv-x="253" d="M64 699T69 702T85 710T113 718T153 722Q199 722 217 695T236 632Q236 567 199 508T80 406L22 486Q58 512 70 541T83 598Q83 629 74 655T63 698Q64 699 69 702Z" />
<glyph unicode="&#x201a;" glyph-name="quotesinglbase" horiz-adv-x="249" d="M64 118T69 121T85 129T113 137T153 141Q199 141 217 114T236 50Q236 -14 199 -73T80 -175L22 -96Q58 -70 70 -41T83 17Q83 48 74 74T63 117Q64 118 69 121Z" />
<glyph unicode="&#x201c;" glyph-name="quotedblleft" horiz-adv-x="464" d="M200 429T195 426T179 418T151 410T111 406Q64 406 46 433T27 497Q27 561 64 620T184 722L241 643Q206 617 194 588T181 530Q181 499 189 473T200 430Q200 429 195 426ZM415 429T410
426T394 418T366 410T326 406Q279 406 261 433T242 497Q242 561 279 620T399 722L456 643Q421 617 409 588T396 530Q396 499 404 473T415 430Q415 429 410 426Z" />
<glyph unicode="&#x201d;" glyph-name="quotedblright" horiz-adv-x="464" d="M64 700T69 703T85 711T113 719T153 723Q199 723 217 696T236 632Q236 568 199 509T80 407L22 486Q58 512 70 541T83 599Q83 630 74 656T63 699Q64 700 69 703ZM279 700T284 703T300
711T328 719T368 723Q414 723 432 696T451 632Q451 568 414 509T295 407L237 486Q273 512 285 541T298 599Q298 630 289 656T278 699Q279 700 284 703Z" />
<glyph unicode="&#x201e;" glyph-name="quotedblbase" horiz-adv-x="464" d="M64 118T69 121T85 129T113 137T153 141Q199 141 217 114T236 50Q236 -14 199 -73T80 -175L22 -96Q58 -70 70 -41T83 17Q83 48 74 74T63 117Q64 118 69 121ZM279 118T284 121T300 129T328
137T368 141Q414 141 432 114T451 50Q451 -14 414 -73T295 -175L237 -96Q273 -70 285 -41T298 17Q298 48 289 74T278 117Q279 118 284 121Z" />
<glyph unicode="&#x2022;" glyph-name="bullet" horiz-adv-x="299" d="M42 365T71 394T149 423Q198 423 227 394T256 316Q256 267 227 238T149 209Q100 209 71 238T42 316Q42 365 71 394Z" />
<glyph unicode="&#x2039;" glyph-name="guilsinglleft" horiz-adv-x="365" d="M338 408L208 245L338 82L272 7Q229 44 188 84Q153 118 113 160T42 245Q73 287 113 329T188 405Q229 445 272 482L338 408Z" />
<glyph unicode="&#x203a;" glyph-name="guilsinglright" horiz-adv-x="365" d="M93 482Q136 445 177 405Q212 371 252 329T323 245Q292 203 252 161T177 84Q136 44 93 7L27 82L157 245L27 408L93 482Z" />
</font>
</defs>
</svg>
